<svg width="16" height="25" viewBox="0 0 16 25" fill="none" xmlns="http://www.w3.org/2000/svg">
<path d="M7.92972 0.285645C4.87153 0.285645 2.35059 2.75084 2.35059 5.83234C2.35059 8.87275 4.8302 11.379 7.92972 11.379C11.0292 11.379 13.5088 8.91384 13.5088 5.83234C13.5088 2.75084 10.9879 0.285645 7.92972 0.285645ZM7.92972 7.68124C6.89654 7.68124 6.07001 6.8595 6.07001 5.83234C6.07001 4.80517 6.89654 3.98344 7.92972 3.98344C8.96289 3.98344 9.78943 4.80517 9.78943 5.83234C9.78943 6.8595 8.96289 7.68124 7.92972 7.68124Z" fill="#7F8288"/>
<path d="M14.7899 15.1178C13.3848 15.8985 11.8557 16.4326 10.3266 16.6791L14.666 21.9793C15.1619 22.5956 15.2859 23.4584 14.8313 24.1158C14.1287 25.184 12.641 25.2251 11.8971 24.2801L7.88836 19.3908L3.92097 24.2801C3.54903 24.7321 3.05311 24.9375 2.51586 24.9375C1.97861 24.9375 1.44136 24.691 1.06942 24.198C0.614822 23.5817 0.656149 22.5545 1.15207 21.9382L5.45007 16.5969C3.92097 16.3093 2.39188 15.8163 1.02809 15.0356C0.160227 14.5426 -0.129062 13.4744 0.366861 12.5704C0.862784 11.7076 1.97861 11.42 2.84648 11.9131C5.98732 13.6798 9.91337 13.6798 13.0955 11.9541C13.9634 11.4611 15.0792 11.7898 15.5338 12.6526C15.9884 13.5565 15.6578 14.6248 14.7899 15.1178Z" fill="#7F8288"/>
</svg>
