<svg width="24" height="25" viewBox="0 0 24 25" fill="none" xmlns="http://www.w3.org/2000/svg">
<path d="M11.999 12.0994V9.09943" stroke="#7F8288" stroke-width="1.7" stroke-linecap="round" stroke-linejoin="round"/>
<path d="M11.9991 14.7976C11.9595 14.7976 11.9216 14.8133 11.8937 14.8412C11.8657 14.8692 11.85 14.9071 11.85 14.9466V14.9485C11.8504 15.0092 11.8873 15.0636 11.9435 15.0865C11.9996 15.1094 12.0641 15.0961 12.1067 15.053C12.1494 15.0098 12.1618 14.9452 12.1382 14.8893C12.1147 14.8334 12.0597 14.7972 11.9991 14.7976" stroke="#7F8288" stroke-width="1.7" stroke-linecap="round" stroke-linejoin="round"/>
<path fill-rule="evenodd" clip-rule="evenodd" d="M4.43634 16.9374C1.97689 13.0693 2.82659 7.96961 6.40734 5.10792C9.9881 2.24623 15.1497 2.54183 18.3803 5.7936C21.611 9.04537 21.8729 14.2088 18.9879 17.7708C16.103 21.3328 10.9978 22.1493 7.14582 19.6646L4.58082 20.0932C4.42149 20.1198 4.25911 20.0678 4.14487 19.9536C4.03064 19.8394 3.97864 19.677 4.00526 19.5177L4.43634 16.9374Z" stroke="#7F8288" stroke-width="1.7" stroke-linecap="round" stroke-linejoin="round"/>
</svg>
