<svg width="40" height="41" viewBox="0 0 40 41" fill="none" xmlns="http://www.w3.org/2000/svg">
<path d="M22.2252 9.91584C22.8027 9.91584 23.273 9.44755 23.273 8.87242C23.273 8.2973 22.8027 7.82901 22.2252 7.82901C21.6476 7.82901 21.1774 8.2973 21.1774 8.87242C21.1774 9.44755 21.6476 9.91584 22.2252 9.91584Z" fill="url(#paint0_linear_124_10596)"/>
<path d="M11.4687 32.5572C10.8912 32.5572 10.4209 33.0255 10.4209 33.6006C10.4209 34.1758 10.8912 34.6441 11.4687 34.6441C12.0462 34.6441 12.5165 34.1758 12.5165 33.6006C12.5165 33.0255 12.0462 32.5572 11.4687 32.5572Z" fill="url(#paint1_linear_124_10596)"/>
<path d="M8.06507 18.1381C8.64262 18.1381 9.11287 17.6698 9.11287 17.0947C9.11287 16.5196 8.64262 16.0513 8.06507 16.0513C7.48753 16.0513 7.01727 16.5196 7.01727 17.0947C7.01727 17.6698 7.48753 18.1381 8.06507 18.1381Z" fill="url(#paint2_linear_124_10596)"/>
<path d="M17.6025 35.5352C17.025 35.5352 16.5547 36.0034 16.5547 36.5786C16.5547 37.1537 17.025 37.622 17.6025 37.622C18.1801 37.622 18.6503 37.1537 18.6503 36.5786C18.6503 36.0034 18.1801 35.5352 17.6025 35.5352Z" fill="url(#paint3_linear_124_10596)"/>
<path d="M19.6251 29.5907C20.2026 29.5907 20.6729 29.1224 20.6729 28.5472C20.6729 27.9721 20.2026 27.5038 19.6251 27.5038C19.0475 27.5038 18.5773 27.9721 18.5773 28.5472C18.5773 29.1224 19.0475 29.5907 19.6251 29.5907Z" fill="url(#paint4_linear_124_10596)"/>
<path d="M12.4777 21.989C12.4777 22.5641 12.9479 23.0324 13.5255 23.0324C14.103 23.0324 14.5733 22.5641 14.5733 21.989C14.5733 21.4138 14.103 20.9456 13.5255 20.9456C12.9479 20.9456 12.4777 21.4138 12.4777 21.989Z" fill="url(#paint5_linear_124_10596)"/>
<path d="M9.39593 22.43C9.39593 21.8548 8.92568 21.3866 8.34814 21.3866C7.77059 21.3866 7.30034 21.8548 7.30034 22.43C7.30034 23.0051 7.77059 23.4734 8.34814 23.4734C8.92568 23.4734 9.39593 23.0051 9.39593 22.43Z" fill="url(#paint6_linear_124_10596)"/>
<path d="M29.3543 23.1119C28.7768 23.1119 28.3065 23.5802 28.3065 24.1554C28.3065 24.7305 28.7768 25.1988 29.3543 25.1988C29.9318 25.1988 30.4021 24.7305 30.4021 24.1554C30.4021 23.5802 29.9318 23.1119 29.3543 23.1119Z" fill="url(#paint7_linear_124_10596)"/>
<path d="M2.10473 27.2038C2.10473 27.7789 2.57498 28.2472 3.15252 28.2472C3.73007 28.2472 4.20032 27.7789 4.20032 27.2038C4.20032 26.6286 3.73007 26.1603 3.15252 26.1603C2.57498 26.1603 2.10473 26.6286 2.10473 27.2038Z" fill="url(#paint8_linear_124_10596)"/>
<path d="M8.69055 30.9364C8.59696 30.991 8.49195 31.016 8.38923 31.016C8.2865 31.016 8.17921 30.9887 8.08562 30.9341C7.89843 30.8273 7.78429 30.6272 7.78429 30.4113L7.79342 24.3531C6.95107 24.1122 6.33244 23.3415 6.33244 22.4254C6.33244 21.3206 7.23642 20.4204 8.34585 20.4204C9.45529 20.4204 10.3593 21.3206 10.3593 22.4254C10.3593 23.3029 9.78857 24.0485 9.00101 24.319L8.99188 29.3679L33.7372 15.1465V11.8981L30.6943 10.1477L26.5351 12.5301L25.0398 16.2991C24.9873 16.4309 24.8892 16.54 24.7659 16.6082L15.5001 21.5889C15.5252 21.7162 15.5389 21.848 15.5389 21.9844C15.5389 23.0892 14.6349 23.9894 13.5255 23.9894C12.4161 23.9894 11.5121 23.0892 11.5121 21.9844C11.5121 20.8796 12.4161 19.9794 13.5255 19.9794C14.0642 19.9794 14.5527 20.1931 14.9157 20.5364L23.9989 15.6535L25.4918 11.8935C25.5421 11.7662 25.6334 11.6617 25.7521 11.5935L29.489 9.45437L21.0998 4.63057L3.76203 14.6533L3.75746 25.2897C4.5747 25.5466 5.16822 26.3058 5.16822 27.2038C5.16822 28.3086 4.26424 29.2088 3.15481 29.2088C2.04537 29.2088 1.14139 28.3086 1.14139 27.2038C1.14139 26.3081 1.73491 25.5466 2.55215 25.2897L2.55672 14.3054C2.55672 14.0918 2.67086 13.894 2.85804 13.7849L19.8899 3.94178L16.8698 2.20503L0 11.9026V31.3001L16.8698 41L33.7395 31.3001V16.54L8.69055 30.9364ZM8.06507 15.0897C8.56272 15.0897 9.01699 15.2716 9.36854 15.5694L20.2665 9.33616C20.23 9.18613 20.2095 9.03155 20.2095 8.87242C20.2095 7.76763 21.1135 6.86743 22.2229 6.86743C23.3323 6.86743 24.2363 7.76763 24.2363 8.87242C24.2363 9.97721 23.3323 10.8774 22.2229 10.8774C21.7093 10.8774 21.2413 10.6842 20.8852 10.3682L10.01 16.59C10.0534 16.7514 10.0785 16.9219 10.0785 17.097C10.0785 18.2018 9.1745 19.102 8.06507 19.102C6.95564 19.102 6.05166 18.2018 6.05166 17.097C6.05166 15.9922 6.95564 15.092 8.06507 15.092V15.0897ZM11.4687 35.6056C10.3593 35.6056 9.45529 34.7054 9.45529 33.6006C9.45529 32.4958 10.3593 31.5956 11.4687 31.5956C11.9755 31.5956 12.4389 31.7843 12.795 32.0958L17.7441 29.2588C17.6596 29.0383 17.6117 28.7996 17.6117 28.5495C17.6117 27.4447 18.5156 26.5445 19.6251 26.5445C20.7345 26.5445 21.6385 27.4447 21.6385 28.5495C21.6385 29.6543 20.7345 30.5545 19.6251 30.5545C19.2096 30.5545 18.8238 30.4295 18.502 30.2135L13.4228 33.1255C13.4616 33.2778 13.4821 33.4392 13.4821 33.6029C13.4821 34.7077 12.5781 35.6079 11.4687 35.6079V35.6056ZM29.352 26.1603C28.8955 26.1603 28.4731 26.0058 28.1353 25.7489L24.3276 27.7971L23.2113 33.8075C23.1794 33.9871 23.0652 34.1394 22.9054 34.228L19.5406 36.0421C19.5886 36.2126 19.616 36.3922 19.616 36.5786C19.616 37.6834 18.712 38.5836 17.6025 38.5836C16.4931 38.5836 15.5891 37.6834 15.5891 36.5786C15.5891 35.4738 16.4931 34.5736 17.6025 34.5736C18.0911 34.5736 18.5385 34.7486 18.8877 35.0373C18.9106 35.0214 18.9311 35.0032 18.9562 34.9919L22.0768 33.3097L23.1931 27.297C23.2273 27.1174 23.3392 26.9628 23.499 26.8764L27.4322 24.76C27.3706 24.5691 27.3386 24.3668 27.3386 24.1554C27.3386 23.0506 28.2426 22.1504 29.352 22.1504C30.4615 22.1504 31.3654 23.0506 31.3654 24.1554C31.3654 25.2601 30.4615 26.1603 29.352 26.1603Z" fill="url(#paint9_linear_124_10596)"/>
<path d="M23.047 3.51214C23.4008 3.8213 23.8642 4.00998 24.371 4.00998C25.4827 4.00998 26.3844 3.10978 26.3844 2.00499C26.3844 0.9002 25.4804 0 24.371 0C23.2616 0 22.3576 0.9002 22.3576 2.00499C22.3576 2.17094 22.3804 2.33234 22.4192 2.48692L19.8944 3.94633L21.102 4.63967L23.0493 3.51442L23.047 3.51214ZM24.371 0.961577C24.9485 0.961577 25.4188 1.42986 25.4188 2.00499C25.4188 2.58012 24.9485 3.0484 24.371 3.0484C23.7934 3.0484 23.3232 2.58012 23.3232 2.00499C23.3232 1.42986 23.7934 0.961577 24.371 0.961577Z" fill="url(#paint10_linear_124_10596)"/>
<path d="M39.8939 12.3141C39.7273 12.0254 39.3575 11.9276 39.0675 12.0936L33.7372 15.1579V16.5469L39.6725 13.137C39.9624 12.9711 40.0606 12.6028 39.8939 12.3164V12.3141Z" fill="url(#paint11_linear_124_10596)"/>
<path d="M34.8923 7.75627C35.2439 8.05179 35.6959 8.23137 36.1912 8.23137C37.303 8.23137 38.2047 7.33117 38.2047 6.22638C38.2047 5.12159 37.3007 4.22139 36.1912 4.22139C35.0818 4.22139 34.1778 5.12159 34.1778 6.22638C34.1778 6.40369 34.2029 6.57419 34.2463 6.74013L29.4913 9.46346L30.7011 10.1591L34.8923 7.75854V7.75627ZM36.1912 5.18297C36.7688 5.18297 37.239 5.65125 37.239 6.22638C37.239 6.80151 36.7688 7.26979 36.1912 7.26979C35.8853 7.26979 35.6137 7.13795 35.4219 6.92881C35.4082 6.88335 35.3923 6.83561 35.3671 6.79242C35.3306 6.72877 35.2804 6.67421 35.2256 6.62874C35.1731 6.50372 35.1434 6.36959 35.1434 6.22638C35.1434 5.65125 35.6137 5.18297 36.1912 5.18297Z" fill="url(#paint12_linear_124_10596)"/>
<defs>
<linearGradient id="paint0_linear_124_10596" x1="41.4727" y1="7.42058" x2="1.47551" y2="30.8479" gradientUnits="userSpaceOnUse">
<stop stop-color="#0042A4"/>
<stop offset="1" stop-color="#0066FF"/>
</linearGradient>
<linearGradient id="paint1_linear_124_10596" x1="41.4727" y1="7.42058" x2="1.47551" y2="30.8479" gradientUnits="userSpaceOnUse">
<stop stop-color="#0042A4"/>
<stop offset="1" stop-color="#0066FF"/>
</linearGradient>
<linearGradient id="paint2_linear_124_10596" x1="41.4727" y1="7.42058" x2="1.47551" y2="30.8479" gradientUnits="userSpaceOnUse">
<stop stop-color="#0042A4"/>
<stop offset="1" stop-color="#0066FF"/>
</linearGradient>
<linearGradient id="paint3_linear_124_10596" x1="41.4727" y1="7.42058" x2="1.47551" y2="30.8479" gradientUnits="userSpaceOnUse">
<stop stop-color="#0042A4"/>
<stop offset="1" stop-color="#0066FF"/>
</linearGradient>
<linearGradient id="paint4_linear_124_10596" x1="41.4727" y1="7.42058" x2="1.47551" y2="30.8479" gradientUnits="userSpaceOnUse">
<stop stop-color="#0042A4"/>
<stop offset="1" stop-color="#0066FF"/>
</linearGradient>
<linearGradient id="paint5_linear_124_10596" x1="41.4727" y1="7.42058" x2="1.47551" y2="30.8479" gradientUnits="userSpaceOnUse">
<stop stop-color="#0042A4"/>
<stop offset="1" stop-color="#0066FF"/>
</linearGradient>
<linearGradient id="paint6_linear_124_10596" x1="41.4727" y1="7.42058" x2="1.47551" y2="30.8479" gradientUnits="userSpaceOnUse">
<stop stop-color="#0042A4"/>
<stop offset="1" stop-color="#0066FF"/>
</linearGradient>
<linearGradient id="paint7_linear_124_10596" x1="41.4727" y1="7.42058" x2="1.47551" y2="30.8479" gradientUnits="userSpaceOnUse">
<stop stop-color="#0042A4"/>
<stop offset="1" stop-color="#0066FF"/>
</linearGradient>
<linearGradient id="paint8_linear_124_10596" x1="41.4727" y1="7.42058" x2="1.47551" y2="30.8479" gradientUnits="userSpaceOnUse">
<stop stop-color="#0042A4"/>
<stop offset="1" stop-color="#0066FF"/>
</linearGradient>
<linearGradient id="paint9_linear_124_10596" x1="41.4727" y1="7.42058" x2="1.47551" y2="30.8479" gradientUnits="userSpaceOnUse">
<stop stop-color="#0042A4"/>
<stop offset="1" stop-color="#0066FF"/>
</linearGradient>
<linearGradient id="paint10_linear_124_10596" x1="41.4727" y1="7.42058" x2="1.47551" y2="30.8479" gradientUnits="userSpaceOnUse">
<stop stop-color="#0042A4"/>
<stop offset="1" stop-color="#0066FF"/>
</linearGradient>
<linearGradient id="paint11_linear_124_10596" x1="41.4727" y1="7.42058" x2="1.47551" y2="30.8479" gradientUnits="userSpaceOnUse">
<stop stop-color="#0042A4"/>
<stop offset="1" stop-color="#0066FF"/>
</linearGradient>
<linearGradient id="paint12_linear_124_10596" x1="41.4727" y1="7.42058" x2="1.47551" y2="30.8479" gradientUnits="userSpaceOnUse">
<stop stop-color="#0042A4"/>
<stop offset="1" stop-color="#0066FF"/>
</linearGradient>
</defs>
</svg>
