<svg width="24" height="19" viewBox="0 0 24 19" fill="none" xmlns="http://www.w3.org/2000/svg">
<path d="M23.2633 2.65519C22.4349 3.01268 21.5335 3.26996 20.605 3.37017C21.569 2.7972 22.2909 1.89201 22.6353 0.824426C21.7307 1.36279 20.7397 1.74031 19.7063 1.94022C19.2744 1.47827 18.752 1.11025 18.1717 0.859112C17.5914 0.60797 16.9656 0.479083 16.3333 0.48048C13.7752 0.48048 11.7179 2.55499 11.7179 5.10073C11.7179 5.45822 11.7612 5.81571 11.8316 6.15965C8.00118 5.95924 4.58494 4.12848 2.31376 1.32545C1.89993 2.03261 1.68306 2.8378 1.68573 3.65724C1.68573 5.26052 2.50054 6.67422 3.74306 7.50565C3.01083 7.4768 2.29574 7.27544 1.65596 6.91796V6.97483C1.65596 9.21996 3.24226 11.0805 5.35643 11.5084C4.95948 11.6116 4.55112 11.6644 4.14099 11.6655C3.84051 11.6655 3.55627 11.6357 3.26933 11.5951C3.85405 13.4259 5.55675 14.7556 7.5843 14.7989C5.99799 16.042 4.01105 16.7732 1.85357 16.7732C1.46647 16.7732 1.10914 16.7597 0.738281 16.7164C2.78478 18.0299 5.21296 18.7882 7.82793 18.7882C16.3171 18.7882 20.9623 11.7522 20.9623 5.64509C20.9623 5.44468 20.9623 5.24427 20.9488 5.04386C21.8475 4.38576 22.6353 3.57058 23.2633 2.65519Z" fill="#7F8288"/>
</svg>
