<svg width="28" height="16" viewBox="0 0 28 16" fill="none" xmlns="http://www.w3.org/2000/svg">
<path fill-rule="evenodd" clip-rule="evenodd" d="M24.7235 11.1392C24.7235 11.1392 26.9597 13.3467 27.5129 14.3682C27.5236 14.3829 27.532 14.3992 27.5378 14.4166C27.7632 14.7939 27.8185 15.0897 27.7079 15.3081C27.5212 15.6689 26.8892 15.85 26.6748 15.8652H22.7224C22.4472 15.8652 21.8747 15.7933 21.1777 15.3123C20.6453 14.9404 20.1156 14.3281 19.6025 13.7296C18.8364 12.8408 18.174 12.0695 17.5032 12.0695C17.4185 12.0693 17.3344 12.0833 17.2543 12.1109C16.7468 12.2713 16.1023 12.9942 16.1023 14.9197C16.1023 15.5224 15.6266 15.8652 15.2933 15.8652H13.4831C12.8663 15.8652 9.65512 15.6496 6.80767 12.6486C3.31854 8.97457 0.184827 1.6043 0.154402 1.53933C-0.0405907 1.06245 0.368756 0.802582 0.811293 0.802582H4.80242C5.33762 0.802582 5.51187 1.12603 5.63356 1.41631C5.77462 1.74944 6.29737 3.08195 7.15479 4.57895C8.54325 7.01451 9.39651 8.00559 10.0783 8.00559C10.2064 8.00597 10.3323 7.9726 10.4434 7.90884C11.334 7.41951 11.168 4.24029 11.1266 3.58509C11.1266 3.45792 11.1252 2.1655 10.6688 1.54071C10.3424 1.09286 9.7865 0.918692 9.45045 0.855108C9.54034 0.725175 9.73118 0.526128 9.97596 0.408635C10.5858 0.104535 11.688 0.0603027 12.7819 0.0603027H13.389C14.5756 0.07689 14.8826 0.152915 15.3141 0.262114C16.1825 0.469455 16.1991 1.03204 16.1231 2.94787C16.1009 3.49525 16.0774 4.11174 16.0774 4.83743C16.0774 4.99224 16.0705 5.16503 16.0705 5.34058C16.0442 6.32337 16.0097 7.43057 16.7039 7.88534C16.7939 7.9414 16.8979 7.97109 17.004 7.97104C17.2446 7.97104 17.9651 7.97104 19.9192 4.61903C20.7766 3.13862 21.4404 1.39281 21.4861 1.2615C21.5248 1.18824 21.641 0.982277 21.782 0.899341C21.8824 0.845979 21.9948 0.819322 22.1084 0.821934H26.8034C27.3151 0.821934 27.6622 0.899341 27.73 1.09286C27.8434 1.40663 27.7079 2.36455 25.5643 5.26179C25.2034 5.7442 24.8867 6.16165 24.6087 6.52657C22.6657 9.07547 22.6657 9.20402 24.7235 11.1392Z" fill="#7F8288"/>
</svg>
