<svg width="36" height="43" viewBox="0 0 36 43" fill="none" xmlns="http://www.w3.org/2000/svg">
<path d="M34.6269 6.65664C28.2024 7.78259 22.0579 6.09478 17.5584 1C13.059 6.09478 6.9145 7.78035 0.489907 6.65664C-1.46415 19.5928 2.07271 34.3131 17.5584 42C32.3305 34.4989 36.9856 19.031 34.6269 6.65664Z" fill="#23A04D"/>
<path opacity="0.4" d="M17.2161 25.9053C16.647 25.9053 16.1824 25.4397 16.1824 24.8644V22.4782C15.6244 22.1245 15.2776 21.5044 15.2776 20.8284C15.2776 19.7517 16.1468 18.8765 17.2161 18.8765C18.2854 18.8765 19.1546 19.7517 19.1546 20.8284C19.1546 21.5044 18.8078 22.1245 18.2498 22.4782V24.8644C18.2476 25.4397 17.7852 25.9053 17.2161 25.9053Z" fill="#92D374"/>
<path d="M12.3455 18.9213V14.9323C12.3455 12.1141 14.613 9.83081 17.4118 9.83081C20.2106 9.83081 22.4781 12.1141 22.4781 14.9323V18.9549" stroke="url(#paint0_linear_94_334)" stroke-width="4" stroke-miterlimit="10" stroke-linecap="round"/>
<path d="M24.1787 28.6116H10.2513C9.51548 28.6116 8.91748 28.0094 8.91748 27.2685V17.5155C8.91748 16.7745 9.51548 16.1724 10.2513 16.1724H24.1787C24.9145 16.1724 25.5125 16.7745 25.5125 17.5155V27.2685C25.5125 28.0094 24.9167 28.6116 24.1787 28.6116Z" fill="white"/>
<path d="M18.7344 20.8284C18.7344 19.9845 18.0542 19.2996 17.2161 19.2996C16.378 19.2996 15.6978 19.9845 15.6978 20.8284C15.6978 21.453 16.069 21.988 16.6025 22.2253V24.8644C16.6025 25.2069 16.8782 25.4822 17.2161 25.4822C17.5562 25.4822 17.8297 25.2047 17.8297 24.8644V22.2253C18.3632 21.9902 18.7344 21.453 18.7344 20.8284Z" fill="url(#paint1_linear_94_334)"/>
<defs>
<linearGradient id="paint0_linear_94_334" x1="17.4112" y1="19.9605" x2="17.4112" y2="8.82251" gradientUnits="userSpaceOnUse">
<stop stop-color="white"/>
<stop offset="1" stop-color="#A9D3AA"/>
</linearGradient>
<linearGradient id="paint1_linear_94_334" x1="17.2155" y1="25.4838" x2="17.2155" y2="19.2998" gradientUnits="userSpaceOnUse">
<stop stop-color="#90CD97"/>
<stop offset="1" stop-color="#567957"/>
</linearGradient>
</defs>
</svg>
