<svg width="27" height="31" viewBox="0 0 27 31" fill="none" xmlns="http://www.w3.org/2000/svg">
<path fill-rule="evenodd" clip-rule="evenodd" d="M26 14.4388C26 21.5024 20.6672 28.1072 13.5 29.7109C6.33281 28.1072 1 21.5024 1 14.4388V8.30383C1 7.04075 1.76719 5.9021 2.80625 5.48056L10.6188 2.29796C12.5141 1.52486 14.4859 1.52486 16.2453 2.24196L24.0578 5.42456C25.2328 5.90366 26 7.04075 26 8.30383V14.4388V14.4388Z" stroke="white" stroke-width="1.5" stroke-linecap="round" stroke-linejoin="round"/>
<path d="M5.39456 19.6002L4 12.5154H6.00468L6.64386 16.8327H6.68744L7.39925 12.5154H9.34582L10.0867 16.7958H10.1303L10.7404 12.5154H12.7451L11.3505 19.6002H9.18603L8.40159 15.7995H8.34348L7.55904 19.6002H5.39456Z" fill="white"/>
<path d="M14.9095 19.7109C14.5536 19.7109 14.2389 19.6371 13.9653 19.4895C13.6941 19.3389 13.4811 19.1113 13.3261 18.8069C13.1712 18.5025 13.0937 18.115 13.0937 17.6445C13.0937 17.2571 13.1458 16.9265 13.2499 16.6528C13.354 16.3761 13.4992 16.1501 13.6857 15.9748C13.8721 15.7995 14.0888 15.6657 14.3357 15.5735C14.5851 15.4812 14.8539 15.4213 15.142 15.3936C15.4543 15.3628 15.7049 15.3259 15.8937 15.2829C16.085 15.2368 16.223 15.1737 16.3077 15.0938C16.3925 15.0108 16.4348 14.9016 16.4348 14.7663V14.7478C16.4348 14.5633 16.3792 14.4219 16.2678 14.3235C16.1564 14.2251 16.0136 14.1759 15.8393 14.1759C15.648 14.1759 15.4918 14.2297 15.3708 14.3373C15.2521 14.4419 15.1807 14.6033 15.1565 14.8216H13.3116C13.3358 14.3911 13.4436 13.9945 13.6348 13.6316C13.8285 13.2657 14.1106 12.9735 14.481 12.7552C14.8514 12.5338 15.3139 12.4231 15.8683 12.4231C16.2678 12.4231 16.6261 12.4831 16.9433 12.603C17.2604 12.7199 17.5304 12.8844 17.7531 13.0965C17.9759 13.3056 18.1454 13.5517 18.2616 13.8346C18.3802 14.1144 18.4395 14.4188 18.4395 14.7478V19.6002H16.5656V18.6039H16.522C16.4106 18.8684 16.2751 19.0821 16.1153 19.2451C15.9579 19.408 15.7775 19.5264 15.5741 19.6002C15.3732 19.674 15.1517 19.7109 14.9095 19.7109ZM15.5632 18.1058C15.7158 18.1058 15.8586 18.0658 15.9918 17.9858C16.1274 17.9059 16.2375 17.7906 16.3223 17.6399C16.407 17.4892 16.4494 17.3063 16.4494 17.091V16.5006C16.3961 16.5283 16.3392 16.5544 16.2787 16.579C16.2206 16.6036 16.1576 16.6267 16.0898 16.6482C16.0245 16.6697 15.9543 16.6897 15.8792 16.7082C15.8066 16.7266 15.7303 16.7435 15.6504 16.7589C15.4955 16.7897 15.3683 16.8404 15.2691 16.9111C15.1722 16.9788 15.0996 17.0633 15.0512 17.1648C15.0052 17.2632 14.9822 17.3739 14.9822 17.4969C14.9822 17.6937 15.0367 17.8444 15.1456 17.9489C15.2546 18.0535 15.3938 18.1058 15.5632 18.1058Z" fill="white"/>
<path d="M22.7385 12.5154V14.3604H19.0052V12.5154H22.7385ZM19.717 19.6002V12.3124C19.717 11.7282 19.7993 11.2438 19.9639 10.8595C20.1286 10.4751 20.361 10.1876 20.6612 9.99692C20.9614 9.80626 21.3149 9.71094 21.7217 9.71094C21.9759 9.71094 22.2228 9.73554 22.4625 9.78474C22.7046 9.83394 22.8838 9.87699 23 9.91389L22.7095 11.7405C22.6368 11.7128 22.5521 11.6913 22.4552 11.6759C22.3584 11.6574 22.2737 11.6482 22.201 11.6482C22.0122 11.6482 21.8851 11.6989 21.8197 11.8004C21.7543 11.9019 21.7217 12.0357 21.7217 12.2017V19.6002H19.717Z" fill="white"/>
</svg>
