<svg width="16" height="17" viewBox="0 0 16 17" fill="none" xmlns="http://www.w3.org/2000/svg">
<path d="M8.09012 3.38897C9.57561 3.38897 10.576 4.03056 11.145 4.57669L13.4027 2.36297C12.0287 1.0639 10.2364 0.268555 8.09012 0.268555C3.71363 0.267229 0.155273 3.86221 0.155273 8.29097C0.155273 12.7197 3.71363 16.3147 8.09012 16.3147C12.6698 16.3147 15.7103 13.0578 15.7103 8.47656C15.7103 7.80979 15.6264 7.33656 15.5097 6.83283H8.08618V9.82335H12.4548C12.2476 11.084 11.1293 13.2115 8.09012 13.2115C5.46396 13.2115 3.32161 11.0044 3.32161 8.30158C3.32161 5.59474 5.46396 3.38897 8.09012 3.38897Z" fill="#7F8288"/>
</svg>
