<svg width="45" height="40" viewBox="0 0 45 40" fill="none" xmlns="http://www.w3.org/2000/svg">
<g clip-path="url(#clip0_241_311)">
<path d="M26.0712 18.0545C24.3393 16.3162 21.5323 16.3162 19.8004 18.0545C18.0685 19.7929 18.0685 22.6105 19.8004 24.3488C21.5323 26.0872 24.3393 26.0872 26.0712 24.3488C27.8031 22.6105 27.8031 19.7929 26.0712 18.0545Z" fill="#7F8288"/>
<path d="M40.9259 2.20505C40.9259 3.42424 39.9437 4.41009 38.729 4.41009C37.5144 4.41009 36.5322 3.42424 36.5322 2.20505C36.5322 0.985854 37.5144 0 38.729 0C39.9437 0 40.9259 0.985854 40.9259 2.20505Z" fill="#7F8288"/>
<path d="M4.38779 31.7923C4.38779 33.0115 3.40561 33.9974 2.19096 33.9974C0.976318 33.9974 -0.00585938 33.0115 -0.00585938 31.7923C-0.00585938 30.5731 0.976318 29.5873 2.19096 29.5873C3.40561 29.5873 4.38779 30.5731 4.38779 31.7923Z" fill="#7F8288"/>
<path d="M29.2271 14.6128C26.9372 12.4136 23.8047 11.6611 20.9279 12.3144C20.5734 11.7194 19.9283 11.3228 19.1844 11.3344C18.086 11.3578 17.2143 12.2736 17.2433 13.3761C17.2433 13.6036 17.2956 13.8136 17.3712 14.0178C17.0283 14.2861 16.6912 14.5778 16.3832 14.9045C12.9136 18.5446 13.0415 24.3139 16.668 27.7964C20.2945 31.279 26.0422 31.1507 29.5118 27.5106C32.9814 23.8705 32.8536 18.1012 29.2271 14.6187V14.6128ZM29.0585 27.0731C25.8272 30.4623 20.4746 30.579 17.098 27.3414C13.7214 24.098 13.6052 18.7254 16.8307 15.3362C17.098 15.0562 17.3828 14.8053 17.6792 14.572C18.0512 15.0445 18.6265 15.342 19.2716 15.3303C20.37 15.307 21.2418 14.3911 21.2127 13.2886C21.2127 13.1545 21.1953 13.0261 21.1662 12.9036C23.8164 12.3378 26.6873 13.0495 28.7912 15.0678C32.1678 18.3112 32.284 23.6838 29.0585 27.0731Z" fill="#7F8288"/>
<path d="M45.0001 32.049C45.0001 32.9357 44.2853 33.6532 43.4019 33.6532C42.5186 33.6532 41.8037 32.9357 41.8037 32.049C41.8037 31.1623 42.5186 30.4448 43.4019 30.4448C44.2853 30.4448 45.0001 31.1623 45.0001 32.049Z" fill="#7F8288"/>
<path d="M44.1341 14.8753C44.1341 12.7811 42.4429 11.0836 40.3565 11.0836C40.002 11.0836 39.6649 11.1361 39.3395 11.2236C38.5723 9.96353 37.6482 8.76767 36.5615 7.67682C29.198 0.285829 17.255 0.285829 9.88575 7.67682C8.13062 9.43852 6.79974 11.4627 5.88149 13.6211C5.69552 13.5861 5.49792 13.5628 5.30032 13.5628C3.59168 13.5628 2.2085 14.9511 2.2085 16.6662C2.2085 18.072 3.14418 19.2621 4.42275 19.6412C4.02756 24.9497 5.84662 30.3865 9.89156 34.4465C17.255 41.8375 29.198 41.8434 36.5673 34.4465C40.9435 30.0539 42.7219 24.0338 41.8966 18.3229C43.2159 17.7337 44.1341 16.4095 44.1341 14.8636V14.8753ZM35.649 33.5307C28.7912 40.4142 17.6734 40.4142 10.8156 33.5307C7.04964 29.7506 5.35844 24.6872 5.72458 19.7462C7.23562 19.5421 8.39796 18.247 8.39796 16.672C8.39796 15.622 7.8749 14.7003 7.08451 14.1345C7.93883 12.1277 9.18254 10.2435 10.8156 8.5985C17.6734 1.71503 28.7912 1.71503 35.649 8.5985C36.6312 9.58436 37.4681 10.6577 38.1655 11.7952C37.2124 12.4836 36.5847 13.6036 36.5847 14.8753C36.5847 16.9695 38.2759 18.667 40.3565 18.667C40.4437 18.667 40.5308 18.6612 40.618 18.6554C41.3445 23.9347 39.6823 29.4764 35.6432 33.5365L35.649 33.5307Z" fill="#7F8288"/>
<path d="M32.7026 11.3986C27.3093 5.98514 18.5627 5.98514 13.1695 11.3986C7.7762 16.812 7.7762 25.5914 13.1695 31.0048C17.3481 35.1991 23.5317 36.1383 28.617 33.8399C29.0761 34.3532 29.7444 34.6799 30.4825 34.6799C31.8657 34.6799 32.9932 33.554 32.9932 32.1599C32.9932 31.7398 32.8886 31.3432 32.7084 30.9932C38.0958 25.5797 38.09 16.8062 32.7026 11.3928V11.3986ZM13.8436 30.3281C8.8223 25.288 8.8223 17.1154 13.8436 12.0753C18.8649 7.03516 27.0071 7.03516 32.0284 12.0753C37.0265 17.0862 37.0497 25.2005 32.1098 30.2465C31.6739 29.8731 31.1044 29.6456 30.4883 29.6456C29.1051 29.6456 27.9835 30.7715 27.9835 32.1599C27.9835 32.4574 28.0358 32.7432 28.1346 33.0057C23.4213 35.0941 17.7142 34.2016 13.8494 30.3223L13.8436 30.3281Z" fill="#7F8288"/>
</g>
<defs>
<clipPath id="clip0_241_311">
<rect width="45" height="40" fill="white"/>
</clipPath>
</defs>
</svg>
