<svg width="334" height="223" viewBox="0 0 334 223" fill="none" xmlns="http://www.w3.org/2000/svg">
<g clip-path="url(#clip0_264_330)">
<path d="M2 1C2 1.55228 1.55228 2 1 2C0.447715 2 0 1.55228 0 1C0 0.447715 0.447715 0 1 0C1.55228 0 2 0.447715 2 1Z" fill="white" fill-opacity="0.3"/>
<path d="M2 18C2 18.5523 1.55228 19 1 19C0.447715 19 0 18.5523 0 18C0 17.4477 0.447715 17 1 17C1.55228 17 2 17.4477 2 18Z" fill="white" fill-opacity="0.3"/>
<path d="M2 35C2 35.5523 1.55228 36 1 36C0.447715 36 0 35.5523 0 35C0 34.4477 0.447715 34 1 34C1.55228 34 2 34.4477 2 35Z" fill="white" fill-opacity="0.3"/>
<path d="M2 52C2 52.5523 1.55228 53 1 53C0.447715 53 0 52.5523 0 52C0 51.4477 0.447715 51 1 51C1.55228 51 2 51.4477 2 52Z" fill="white" fill-opacity="0.3"/>
<path d="M2 69C2 69.5523 1.55228 70 1 70C0.447715 70 0 69.5523 0 69C0 68.4477 0.447715 68 1 68C1.55228 68 2 68.4477 2 69Z" fill="white" fill-opacity="0.3"/>
<path d="M2 86C2 86.5523 1.55228 87 1 87C0.447715 87 0 86.5523 0 86C0 85.4477 0.447715 85 1 85C1.55228 85 2 85.4477 2 86Z" fill="white" fill-opacity="0.3"/>
<path d="M2 103C2 103.552 1.55228 104 1 104C0.447715 104 0 103.552 0 103C0 102.448 0.447715 102 1 102C1.55228 102 2 102.448 2 103Z" fill="white" fill-opacity="0.3"/>
<path d="M2 120C2 120.552 1.55228 121 1 121C0.447715 121 0 120.552 0 120C0 119.448 0.447715 119 1 119C1.55228 119 2 119.448 2 120Z" fill="white" fill-opacity="0.3"/>
<path d="M2 137C2 137.552 1.55228 138 1 138C0.447715 138 0 137.552 0 137C0 136.448 0.447715 136 1 136C1.55228 136 2 136.448 2 137Z" fill="white" fill-opacity="0.3"/>
<path d="M2 154C2 154.552 1.55228 155 1 155C0.447715 155 0 154.552 0 154C0 153.448 0.447715 153 1 153C1.55228 153 2 153.448 2 154Z" fill="white" fill-opacity="0.3"/>
<path d="M2 171C2 171.552 1.55228 172 1 172C0.447715 172 0 171.552 0 171C0 170.448 0.447715 170 1 170C1.55228 170 2 170.448 2 171Z" fill="white" fill-opacity="0.3"/>
<path d="M2 188C2 188.552 1.55228 189 1 189C0.447715 189 0 188.552 0 188C0 187.448 0.447715 187 1 187C1.55228 187 2 187.448 2 188Z" fill="white" fill-opacity="0.3"/>
<path d="M2 205C2 205.552 1.55228 206 1 206C0.447715 206 0 205.552 0 205C0 204.448 0.447715 204 1 204C1.55228 204 2 204.448 2 205Z" fill="white" fill-opacity="0.3"/>
<path d="M2 222C2 222.552 1.55228 223 1 223C0.447715 223 0 222.552 0 222C0 221.448 0.447715 221 1 221C1.55228 221 2 221.448 2 222Z" fill="white" fill-opacity="0.3"/>
<path d="M19 1C19 1.55228 18.5523 2 18 2C17.4477 2 17 1.55228 17 1C17 0.447715 17.4477 0 18 0C18.5523 0 19 0.447715 19 1Z" fill="white" fill-opacity="0.3"/>
<path d="M19 18C19 18.5523 18.5523 19 18 19C17.4477 19 17 18.5523 17 18C17 17.4477 17.4477 17 18 17C18.5523 17 19 17.4477 19 18Z" fill="white" fill-opacity="0.3"/>
<path d="M19 35C19 35.5523 18.5523 36 18 36C17.4477 36 17 35.5523 17 35C17 34.4477 17.4477 34 18 34C18.5523 34 19 34.4477 19 35Z" fill="white" fill-opacity="0.3"/>
<path d="M19 52C19 52.5523 18.5523 53 18 53C17.4477 53 17 52.5523 17 52C17 51.4477 17.4477 51 18 51C18.5523 51 19 51.4477 19 52Z" fill="white" fill-opacity="0.3"/>
<path d="M19 69C19 69.5523 18.5523 70 18 70C17.4477 70 17 69.5523 17 69C17 68.4477 17.4477 68 18 68C18.5523 68 19 68.4477 19 69Z" fill="white" fill-opacity="0.3"/>
<path d="M19 86C19 86.5523 18.5523 87 18 87C17.4477 87 17 86.5523 17 86C17 85.4477 17.4477 85 18 85C18.5523 85 19 85.4477 19 86Z" fill="white" fill-opacity="0.3"/>
<path d="M19 103C19 103.552 18.5523 104 18 104C17.4477 104 17 103.552 17 103C17 102.448 17.4477 102 18 102C18.5523 102 19 102.448 19 103Z" fill="white" fill-opacity="0.3"/>
<path d="M19 120C19 120.552 18.5523 121 18 121C17.4477 121 17 120.552 17 120C17 119.448 17.4477 119 18 119C18.5523 119 19 119.448 19 120Z" fill="white" fill-opacity="0.3"/>
<path d="M19 137C19 137.552 18.5523 138 18 138C17.4477 138 17 137.552 17 137C17 136.448 17.4477 136 18 136C18.5523 136 19 136.448 19 137Z" fill="white" fill-opacity="0.3"/>
<path d="M19 154C19 154.552 18.5523 155 18 155C17.4477 155 17 154.552 17 154C17 153.448 17.4477 153 18 153C18.5523 153 19 153.448 19 154Z" fill="white" fill-opacity="0.3"/>
<path d="M19 171C19 171.552 18.5523 172 18 172C17.4477 172 17 171.552 17 171C17 170.448 17.4477 170 18 170C18.5523 170 19 170.448 19 171Z" fill="white" fill-opacity="0.3"/>
<path d="M19 188C19 188.552 18.5523 189 18 189C17.4477 189 17 188.552 17 188C17 187.448 17.4477 187 18 187C18.5523 187 19 187.448 19 188Z" fill="white" fill-opacity="0.3"/>
<path d="M19 205C19 205.552 18.5523 206 18 206C17.4477 206 17 205.552 17 205C17 204.448 17.4477 204 18 204C18.5523 204 19 204.448 19 205Z" fill="white" fill-opacity="0.3"/>
<path d="M19 222C19 222.552 18.5523 223 18 223C17.4477 223 17 222.552 17 222C17 221.448 17.4477 221 18 221C18.5523 221 19 221.448 19 222Z" fill="white" fill-opacity="0.3"/>
<path d="M36 1C36 1.55228 35.5523 2 35 2C34.4477 2 34 1.55228 34 1C34 0.447715 34.4477 0 35 0C35.5523 0 36 0.447715 36 1Z" fill="white" fill-opacity="0.3"/>
<path d="M36 18C36 18.5523 35.5523 19 35 19C34.4477 19 34 18.5523 34 18C34 17.4477 34.4477 17 35 17C35.5523 17 36 17.4477 36 18Z" fill="white" fill-opacity="0.3"/>
<path d="M36 35C36 35.5523 35.5523 36 35 36C34.4477 36 34 35.5523 34 35C34 34.4477 34.4477 34 35 34C35.5523 34 36 34.4477 36 35Z" fill="white" fill-opacity="0.3"/>
<path d="M36 52C36 52.5523 35.5523 53 35 53C34.4477 53 34 52.5523 34 52C34 51.4477 34.4477 51 35 51C35.5523 51 36 51.4477 36 52Z" fill="white" fill-opacity="0.3"/>
<path d="M36 69C36 69.5523 35.5523 70 35 70C34.4477 70 34 69.5523 34 69C34 68.4477 34.4477 68 35 68C35.5523 68 36 68.4477 36 69Z" fill="white" fill-opacity="0.3"/>
<path d="M36 86C36 86.5523 35.5523 87 35 87C34.4477 87 34 86.5523 34 86C34 85.4477 34.4477 85 35 85C35.5523 85 36 85.4477 36 86Z" fill="white" fill-opacity="0.3"/>
<path d="M36 103C36 103.552 35.5523 104 35 104C34.4477 104 34 103.552 34 103C34 102.448 34.4477 102 35 102C35.5523 102 36 102.448 36 103Z" fill="white" fill-opacity="0.3"/>
<path d="M36 120C36 120.552 35.5523 121 35 121C34.4477 121 34 120.552 34 120C34 119.448 34.4477 119 35 119C35.5523 119 36 119.448 36 120Z" fill="white" fill-opacity="0.3"/>
<path d="M36 137C36 137.552 35.5523 138 35 138C34.4477 138 34 137.552 34 137C34 136.448 34.4477 136 35 136C35.5523 136 36 136.448 36 137Z" fill="white" fill-opacity="0.3"/>
<path d="M36 154C36 154.552 35.5523 155 35 155C34.4477 155 34 154.552 34 154C34 153.448 34.4477 153 35 153C35.5523 153 36 153.448 36 154Z" fill="white" fill-opacity="0.3"/>
<path d="M36 171C36 171.552 35.5523 172 35 172C34.4477 172 34 171.552 34 171C34 170.448 34.4477 170 35 170C35.5523 170 36 170.448 36 171Z" fill="white" fill-opacity="0.3"/>
<path d="M36 188C36 188.552 35.5523 189 35 189C34.4477 189 34 188.552 34 188C34 187.448 34.4477 187 35 187C35.5523 187 36 187.448 36 188Z" fill="white" fill-opacity="0.3"/>
<path d="M36 205C36 205.552 35.5523 206 35 206C34.4477 206 34 205.552 34 205C34 204.448 34.4477 204 35 204C35.5523 204 36 204.448 36 205Z" fill="white" fill-opacity="0.3"/>
<path d="M36 222C36 222.552 35.5523 223 35 223C34.4477 223 34 222.552 34 222C34 221.448 34.4477 221 35 221C35.5523 221 36 221.448 36 222Z" fill="white" fill-opacity="0.3"/>
<path d="M53 1C53 1.55228 52.5523 2 52 2C51.4477 2 51 1.55228 51 1C51 0.447715 51.4477 0 52 0C52.5523 0 53 0.447715 53 1Z" fill="white" fill-opacity="0.3"/>
<path d="M53 18C53 18.5523 52.5523 19 52 19C51.4477 19 51 18.5523 51 18C51 17.4477 51.4477 17 52 17C52.5523 17 53 17.4477 53 18Z" fill="white" fill-opacity="0.3"/>
<path d="M53 35C53 35.5523 52.5523 36 52 36C51.4477 36 51 35.5523 51 35C51 34.4477 51.4477 34 52 34C52.5523 34 53 34.4477 53 35Z" fill="white" fill-opacity="0.3"/>
<path d="M53 52C53 52.5523 52.5523 53 52 53C51.4477 53 51 52.5523 51 52C51 51.4477 51.4477 51 52 51C52.5523 51 53 51.4477 53 52Z" fill="white" fill-opacity="0.3"/>
<path d="M53 69C53 69.5523 52.5523 70 52 70C51.4477 70 51 69.5523 51 69C51 68.4477 51.4477 68 52 68C52.5523 68 53 68.4477 53 69Z" fill="white" fill-opacity="0.3"/>
<path d="M53 86C53 86.5523 52.5523 87 52 87C51.4477 87 51 86.5523 51 86C51 85.4477 51.4477 85 52 85C52.5523 85 53 85.4477 53 86Z" fill="white" fill-opacity="0.3"/>
<path d="M53 103C53 103.552 52.5523 104 52 104C51.4477 104 51 103.552 51 103C51 102.448 51.4477 102 52 102C52.5523 102 53 102.448 53 103Z" fill="white" fill-opacity="0.3"/>
<path d="M53 120C53 120.552 52.5523 121 52 121C51.4477 121 51 120.552 51 120C51 119.448 51.4477 119 52 119C52.5523 119 53 119.448 53 120Z" fill="white" fill-opacity="0.3"/>
<path d="M53 137C53 137.552 52.5523 138 52 138C51.4477 138 51 137.552 51 137C51 136.448 51.4477 136 52 136C52.5523 136 53 136.448 53 137Z" fill="white" fill-opacity="0.3"/>
<path d="M53 154C53 154.552 52.5523 155 52 155C51.4477 155 51 154.552 51 154C51 153.448 51.4477 153 52 153C52.5523 153 53 153.448 53 154Z" fill="white" fill-opacity="0.3"/>
<path d="M53 171C53 171.552 52.5523 172 52 172C51.4477 172 51 171.552 51 171C51 170.448 51.4477 170 52 170C52.5523 170 53 170.448 53 171Z" fill="white" fill-opacity="0.3"/>
<path d="M53 188C53 188.552 52.5523 189 52 189C51.4477 189 51 188.552 51 188C51 187.448 51.4477 187 52 187C52.5523 187 53 187.448 53 188Z" fill="white" fill-opacity="0.3"/>
<path d="M53 205C53 205.552 52.5523 206 52 206C51.4477 206 51 205.552 51 205C51 204.448 51.4477 204 52 204C52.5523 204 53 204.448 53 205Z" fill="white" fill-opacity="0.3"/>
<path d="M53 222C53 222.552 52.5523 223 52 223C51.4477 223 51 222.552 51 222C51 221.448 51.4477 221 52 221C52.5523 221 53 221.448 53 222Z" fill="white" fill-opacity="0.3"/>
<path d="M70 1C70 1.55228 69.5523 2 69 2C68.4477 2 68 1.55228 68 1C68 0.447715 68.4477 0 69 0C69.5523 0 70 0.447715 70 1Z" fill="white" fill-opacity="0.3"/>
<path d="M70 18C70 18.5523 69.5523 19 69 19C68.4477 19 68 18.5523 68 18C68 17.4477 68.4477 17 69 17C69.5523 17 70 17.4477 70 18Z" fill="white" fill-opacity="0.3"/>
<path d="M70 35C70 35.5523 69.5523 36 69 36C68.4477 36 68 35.5523 68 35C68 34.4477 68.4477 34 69 34C69.5523 34 70 34.4477 70 35Z" fill="white" fill-opacity="0.3"/>
<path d="M70 52C70 52.5523 69.5523 53 69 53C68.4477 53 68 52.5523 68 52C68 51.4477 68.4477 51 69 51C69.5523 51 70 51.4477 70 52Z" fill="white" fill-opacity="0.3"/>
<path d="M70 69C70 69.5523 69.5523 70 69 70C68.4477 70 68 69.5523 68 69C68 68.4477 68.4477 68 69 68C69.5523 68 70 68.4477 70 69Z" fill="white" fill-opacity="0.3"/>
<path d="M70 86C70 86.5523 69.5523 87 69 87C68.4477 87 68 86.5523 68 86C68 85.4477 68.4477 85 69 85C69.5523 85 70 85.4477 70 86Z" fill="white" fill-opacity="0.3"/>
<path d="M70 103C70 103.552 69.5523 104 69 104C68.4477 104 68 103.552 68 103C68 102.448 68.4477 102 69 102C69.5523 102 70 102.448 70 103Z" fill="white" fill-opacity="0.3"/>
<path d="M70 120C70 120.552 69.5523 121 69 121C68.4477 121 68 120.552 68 120C68 119.448 68.4477 119 69 119C69.5523 119 70 119.448 70 120Z" fill="white" fill-opacity="0.3"/>
<path d="M70 137C70 137.552 69.5523 138 69 138C68.4477 138 68 137.552 68 137C68 136.448 68.4477 136 69 136C69.5523 136 70 136.448 70 137Z" fill="white" fill-opacity="0.3"/>
<path d="M70 154C70 154.552 69.5523 155 69 155C68.4477 155 68 154.552 68 154C68 153.448 68.4477 153 69 153C69.5523 153 70 153.448 70 154Z" fill="white" fill-opacity="0.3"/>
<path d="M70 171C70 171.552 69.5523 172 69 172C68.4477 172 68 171.552 68 171C68 170.448 68.4477 170 69 170C69.5523 170 70 170.448 70 171Z" fill="white" fill-opacity="0.3"/>
<path d="M70 188C70 188.552 69.5523 189 69 189C68.4477 189 68 188.552 68 188C68 187.448 68.4477 187 69 187C69.5523 187 70 187.448 70 188Z" fill="white" fill-opacity="0.3"/>
<path d="M70 205C70 205.552 69.5523 206 69 206C68.4477 206 68 205.552 68 205C68 204.448 68.4477 204 69 204C69.5523 204 70 204.448 70 205Z" fill="white" fill-opacity="0.3"/>
<path d="M70 222C70 222.552 69.5523 223 69 223C68.4477 223 68 222.552 68 222C68 221.448 68.4477 221 69 221C69.5523 221 70 221.448 70 222Z" fill="white" fill-opacity="0.3"/>
<path d="M87 1C87 1.55228 86.5523 2 86 2C85.4477 2 85 1.55228 85 1C85 0.447715 85.4477 0 86 0C86.5523 0 87 0.447715 87 1Z" fill="white" fill-opacity="0.3"/>
<path d="M87 18C87 18.5523 86.5523 19 86 19C85.4477 19 85 18.5523 85 18C85 17.4477 85.4477 17 86 17C86.5523 17 87 17.4477 87 18Z" fill="white" fill-opacity="0.3"/>
<path d="M87 35C87 35.5523 86.5523 36 86 36C85.4477 36 85 35.5523 85 35C85 34.4477 85.4477 34 86 34C86.5523 34 87 34.4477 87 35Z" fill="white" fill-opacity="0.3"/>
<path d="M87 52C87 52.5523 86.5523 53 86 53C85.4477 53 85 52.5523 85 52C85 51.4477 85.4477 51 86 51C86.5523 51 87 51.4477 87 52Z" fill="white" fill-opacity="0.3"/>
<path d="M87 69C87 69.5523 86.5523 70 86 70C85.4477 70 85 69.5523 85 69C85 68.4477 85.4477 68 86 68C86.5523 68 87 68.4477 87 69Z" fill="white" fill-opacity="0.3"/>
<path d="M87 86C87 86.5523 86.5523 87 86 87C85.4477 87 85 86.5523 85 86C85 85.4477 85.4477 85 86 85C86.5523 85 87 85.4477 87 86Z" fill="white" fill-opacity="0.3"/>
<path d="M87 103C87 103.552 86.5523 104 86 104C85.4477 104 85 103.552 85 103C85 102.448 85.4477 102 86 102C86.5523 102 87 102.448 87 103Z" fill="white" fill-opacity="0.3"/>
<path d="M87 120C87 120.552 86.5523 121 86 121C85.4477 121 85 120.552 85 120C85 119.448 85.4477 119 86 119C86.5523 119 87 119.448 87 120Z" fill="white" fill-opacity="0.3"/>
<path d="M87 137C87 137.552 86.5523 138 86 138C85.4477 138 85 137.552 85 137C85 136.448 85.4477 136 86 136C86.5523 136 87 136.448 87 137Z" fill="white" fill-opacity="0.3"/>
<path d="M87 154C87 154.552 86.5523 155 86 155C85.4477 155 85 154.552 85 154C85 153.448 85.4477 153 86 153C86.5523 153 87 153.448 87 154Z" fill="white" fill-opacity="0.3"/>
<path d="M87 171C87 171.552 86.5523 172 86 172C85.4477 172 85 171.552 85 171C85 170.448 85.4477 170 86 170C86.5523 170 87 170.448 87 171Z" fill="white" fill-opacity="0.3"/>
<path d="M87 188C87 188.552 86.5523 189 86 189C85.4477 189 85 188.552 85 188C85 187.448 85.4477 187 86 187C86.5523 187 87 187.448 87 188Z" fill="white" fill-opacity="0.3"/>
<path d="M87 205C87 205.552 86.5523 206 86 206C85.4477 206 85 205.552 85 205C85 204.448 85.4477 204 86 204C86.5523 204 87 204.448 87 205Z" fill="white" fill-opacity="0.3"/>
<path d="M87 222C87 222.552 86.5523 223 86 223C85.4477 223 85 222.552 85 222C85 221.448 85.4477 221 86 221C86.5523 221 87 221.448 87 222Z" fill="white" fill-opacity="0.3"/>
<path d="M104 1C104 1.55228 103.552 2 103 2C102.448 2 102 1.55228 102 1C102 0.447715 102.448 0 103 0C103.552 0 104 0.447715 104 1Z" fill="white" fill-opacity="0.3"/>
<path d="M104 18C104 18.5523 103.552 19 103 19C102.448 19 102 18.5523 102 18C102 17.4477 102.448 17 103 17C103.552 17 104 17.4477 104 18Z" fill="white" fill-opacity="0.3"/>
<path d="M104 35C104 35.5523 103.552 36 103 36C102.448 36 102 35.5523 102 35C102 34.4477 102.448 34 103 34C103.552 34 104 34.4477 104 35Z" fill="white" fill-opacity="0.3"/>
<path d="M104 52C104 52.5523 103.552 53 103 53C102.448 53 102 52.5523 102 52C102 51.4477 102.448 51 103 51C103.552 51 104 51.4477 104 52Z" fill="white" fill-opacity="0.3"/>
<path d="M104 69C104 69.5523 103.552 70 103 70C102.448 70 102 69.5523 102 69C102 68.4477 102.448 68 103 68C103.552 68 104 68.4477 104 69Z" fill="white" fill-opacity="0.3"/>
<path d="M104 86C104 86.5523 103.552 87 103 87C102.448 87 102 86.5523 102 86C102 85.4477 102.448 85 103 85C103.552 85 104 85.4477 104 86Z" fill="white" fill-opacity="0.3"/>
<path d="M104 103C104 103.552 103.552 104 103 104C102.448 104 102 103.552 102 103C102 102.448 102.448 102 103 102C103.552 102 104 102.448 104 103Z" fill="white" fill-opacity="0.3"/>
<path d="M104 120C104 120.552 103.552 121 103 121C102.448 121 102 120.552 102 120C102 119.448 102.448 119 103 119C103.552 119 104 119.448 104 120Z" fill="white" fill-opacity="0.3"/>
<path d="M104 137C104 137.552 103.552 138 103 138C102.448 138 102 137.552 102 137C102 136.448 102.448 136 103 136C103.552 136 104 136.448 104 137Z" fill="white" fill-opacity="0.3"/>
<path d="M104 154C104 154.552 103.552 155 103 155C102.448 155 102 154.552 102 154C102 153.448 102.448 153 103 153C103.552 153 104 153.448 104 154Z" fill="white" fill-opacity="0.3"/>
<path d="M104 171C104 171.552 103.552 172 103 172C102.448 172 102 171.552 102 171C102 170.448 102.448 170 103 170C103.552 170 104 170.448 104 171Z" fill="white" fill-opacity="0.3"/>
<path d="M104 188C104 188.552 103.552 189 103 189C102.448 189 102 188.552 102 188C102 187.448 102.448 187 103 187C103.552 187 104 187.448 104 188Z" fill="white" fill-opacity="0.3"/>
<path d="M104 205C104 205.552 103.552 206 103 206C102.448 206 102 205.552 102 205C102 204.448 102.448 204 103 204C103.552 204 104 204.448 104 205Z" fill="white" fill-opacity="0.3"/>
<path d="M104 222C104 222.552 103.552 223 103 223C102.448 223 102 222.552 102 222C102 221.448 102.448 221 103 221C103.552 221 104 221.448 104 222Z" fill="white" fill-opacity="0.3"/>
<path d="M121 1C121 1.55228 120.552 2 120 2C119.448 2 119 1.55228 119 1C119 0.447715 119.448 0 120 0C120.552 0 121 0.447715 121 1Z" fill="white" fill-opacity="0.3"/>
<path d="M121 18C121 18.5523 120.552 19 120 19C119.448 19 119 18.5523 119 18C119 17.4477 119.448 17 120 17C120.552 17 121 17.4477 121 18Z" fill="white" fill-opacity="0.3"/>
<path d="M121 35C121 35.5523 120.552 36 120 36C119.448 36 119 35.5523 119 35C119 34.4477 119.448 34 120 34C120.552 34 121 34.4477 121 35Z" fill="white" fill-opacity="0.3"/>
<path d="M121 52C121 52.5523 120.552 53 120 53C119.448 53 119 52.5523 119 52C119 51.4477 119.448 51 120 51C120.552 51 121 51.4477 121 52Z" fill="white" fill-opacity="0.3"/>
<path d="M121 69C121 69.5523 120.552 70 120 70C119.448 70 119 69.5523 119 69C119 68.4477 119.448 68 120 68C120.552 68 121 68.4477 121 69Z" fill="white" fill-opacity="0.3"/>
<path d="M121 86C121 86.5523 120.552 87 120 87C119.448 87 119 86.5523 119 86C119 85.4477 119.448 85 120 85C120.552 85 121 85.4477 121 86Z" fill="white" fill-opacity="0.3"/>
<path d="M121 103C121 103.552 120.552 104 120 104C119.448 104 119 103.552 119 103C119 102.448 119.448 102 120 102C120.552 102 121 102.448 121 103Z" fill="white" fill-opacity="0.3"/>
<path d="M121 120C121 120.552 120.552 121 120 121C119.448 121 119 120.552 119 120C119 119.448 119.448 119 120 119C120.552 119 121 119.448 121 120Z" fill="white" fill-opacity="0.3"/>
<path d="M121 137C121 137.552 120.552 138 120 138C119.448 138 119 137.552 119 137C119 136.448 119.448 136 120 136C120.552 136 121 136.448 121 137Z" fill="white" fill-opacity="0.3"/>
<path d="M121 154C121 154.552 120.552 155 120 155C119.448 155 119 154.552 119 154C119 153.448 119.448 153 120 153C120.552 153 121 153.448 121 154Z" fill="white" fill-opacity="0.3"/>
<path d="M121 171C121 171.552 120.552 172 120 172C119.448 172 119 171.552 119 171C119 170.448 119.448 170 120 170C120.552 170 121 170.448 121 171Z" fill="white" fill-opacity="0.3"/>
<path d="M121 188C121 188.552 120.552 189 120 189C119.448 189 119 188.552 119 188C119 187.448 119.448 187 120 187C120.552 187 121 187.448 121 188Z" fill="white" fill-opacity="0.3"/>
<path d="M121 205C121 205.552 120.552 206 120 206C119.448 206 119 205.552 119 205C119 204.448 119.448 204 120 204C120.552 204 121 204.448 121 205Z" fill="white" fill-opacity="0.3"/>
<path d="M121 222C121 222.552 120.552 223 120 223C119.448 223 119 222.552 119 222C119 221.448 119.448 221 120 221C120.552 221 121 221.448 121 222Z" fill="white" fill-opacity="0.3"/>
<path d="M138 1C138 1.55228 137.552 2 137 2C136.448 2 136 1.55228 136 1C136 0.447715 136.448 0 137 0C137.552 0 138 0.447715 138 1Z" fill="white" fill-opacity="0.3"/>
<path d="M138 18C138 18.5523 137.552 19 137 19C136.448 19 136 18.5523 136 18C136 17.4477 136.448 17 137 17C137.552 17 138 17.4477 138 18Z" fill="white" fill-opacity="0.3"/>
<path d="M138 35C138 35.5523 137.552 36 137 36C136.448 36 136 35.5523 136 35C136 34.4477 136.448 34 137 34C137.552 34 138 34.4477 138 35Z" fill="white" fill-opacity="0.3"/>
<path d="M138 52C138 52.5523 137.552 53 137 53C136.448 53 136 52.5523 136 52C136 51.4477 136.448 51 137 51C137.552 51 138 51.4477 138 52Z" fill="white" fill-opacity="0.3"/>
<path d="M138 69C138 69.5523 137.552 70 137 70C136.448 70 136 69.5523 136 69C136 68.4477 136.448 68 137 68C137.552 68 138 68.4477 138 69Z" fill="white" fill-opacity="0.3"/>
<path d="M138 86C138 86.5523 137.552 87 137 87C136.448 87 136 86.5523 136 86C136 85.4477 136.448 85 137 85C137.552 85 138 85.4477 138 86Z" fill="white" fill-opacity="0.3"/>
<path d="M138 103C138 103.552 137.552 104 137 104C136.448 104 136 103.552 136 103C136 102.448 136.448 102 137 102C137.552 102 138 102.448 138 103Z" fill="white" fill-opacity="0.3"/>
<path d="M138 120C138 120.552 137.552 121 137 121C136.448 121 136 120.552 136 120C136 119.448 136.448 119 137 119C137.552 119 138 119.448 138 120Z" fill="white" fill-opacity="0.3"/>
<path d="M138 137C138 137.552 137.552 138 137 138C136.448 138 136 137.552 136 137C136 136.448 136.448 136 137 136C137.552 136 138 136.448 138 137Z" fill="white" fill-opacity="0.3"/>
<path d="M138 154C138 154.552 137.552 155 137 155C136.448 155 136 154.552 136 154C136 153.448 136.448 153 137 153C137.552 153 138 153.448 138 154Z" fill="white" fill-opacity="0.3"/>
<path d="M138 171C138 171.552 137.552 172 137 172C136.448 172 136 171.552 136 171C136 170.448 136.448 170 137 170C137.552 170 138 170.448 138 171Z" fill="white" fill-opacity="0.3"/>
<path d="M138 188C138 188.552 137.552 189 137 189C136.448 189 136 188.552 136 188C136 187.448 136.448 187 137 187C137.552 187 138 187.448 138 188Z" fill="white" fill-opacity="0.3"/>
<path d="M138 205C138 205.552 137.552 206 137 206C136.448 206 136 205.552 136 205C136 204.448 136.448 204 137 204C137.552 204 138 204.448 138 205Z" fill="white" fill-opacity="0.3"/>
<path d="M138 222C138 222.552 137.552 223 137 223C136.448 223 136 222.552 136 222C136 221.448 136.448 221 137 221C137.552 221 138 221.448 138 222Z" fill="white" fill-opacity="0.3"/>
<path d="M155 1C155 1.55228 154.552 2 154 2C153.448 2 153 1.55228 153 1C153 0.447715 153.448 0 154 0C154.552 0 155 0.447715 155 1Z" fill="white" fill-opacity="0.3"/>
<path d="M155 18C155 18.5523 154.552 19 154 19C153.448 19 153 18.5523 153 18C153 17.4477 153.448 17 154 17C154.552 17 155 17.4477 155 18Z" fill="white" fill-opacity="0.3"/>
<path d="M155 35C155 35.5523 154.552 36 154 36C153.448 36 153 35.5523 153 35C153 34.4477 153.448 34 154 34C154.552 34 155 34.4477 155 35Z" fill="white" fill-opacity="0.3"/>
<path d="M155 52C155 52.5523 154.552 53 154 53C153.448 53 153 52.5523 153 52C153 51.4477 153.448 51 154 51C154.552 51 155 51.4477 155 52Z" fill="white" fill-opacity="0.3"/>
<path d="M155 69C155 69.5523 154.552 70 154 70C153.448 70 153 69.5523 153 69C153 68.4477 153.448 68 154 68C154.552 68 155 68.4477 155 69Z" fill="white" fill-opacity="0.3"/>
<path d="M155 86C155 86.5523 154.552 87 154 87C153.448 87 153 86.5523 153 86C153 85.4477 153.448 85 154 85C154.552 85 155 85.4477 155 86Z" fill="white" fill-opacity="0.3"/>
<path d="M155 103C155 103.552 154.552 104 154 104C153.448 104 153 103.552 153 103C153 102.448 153.448 102 154 102C154.552 102 155 102.448 155 103Z" fill="white" fill-opacity="0.3"/>
<path d="M155 120C155 120.552 154.552 121 154 121C153.448 121 153 120.552 153 120C153 119.448 153.448 119 154 119C154.552 119 155 119.448 155 120Z" fill="white" fill-opacity="0.3"/>
<path d="M155 137C155 137.552 154.552 138 154 138C153.448 138 153 137.552 153 137C153 136.448 153.448 136 154 136C154.552 136 155 136.448 155 137Z" fill="white" fill-opacity="0.3"/>
<path d="M155 154C155 154.552 154.552 155 154 155C153.448 155 153 154.552 153 154C153 153.448 153.448 153 154 153C154.552 153 155 153.448 155 154Z" fill="white" fill-opacity="0.3"/>
<path d="M155 171C155 171.552 154.552 172 154 172C153.448 172 153 171.552 153 171C153 170.448 153.448 170 154 170C154.552 170 155 170.448 155 171Z" fill="white" fill-opacity="0.3"/>
<path d="M155 188C155 188.552 154.552 189 154 189C153.448 189 153 188.552 153 188C153 187.448 153.448 187 154 187C154.552 187 155 187.448 155 188Z" fill="white" fill-opacity="0.3"/>
<path d="M155 205C155 205.552 154.552 206 154 206C153.448 206 153 205.552 153 205C153 204.448 153.448 204 154 204C154.552 204 155 204.448 155 205Z" fill="white" fill-opacity="0.3"/>
<path d="M155 222C155 222.552 154.552 223 154 223C153.448 223 153 222.552 153 222C153 221.448 153.448 221 154 221C154.552 221 155 221.448 155 222Z" fill="white" fill-opacity="0.3"/>
<path d="M172 1C172 1.55228 171.552 2 171 2C170.448 2 170 1.55228 170 1C170 0.447715 170.448 0 171 0C171.552 0 172 0.447715 172 1Z" fill="white" fill-opacity="0.3"/>
<path d="M172 18C172 18.5523 171.552 19 171 19C170.448 19 170 18.5523 170 18C170 17.4477 170.448 17 171 17C171.552 17 172 17.4477 172 18Z" fill="white" fill-opacity="0.3"/>
<path d="M172 35C172 35.5523 171.552 36 171 36C170.448 36 170 35.5523 170 35C170 34.4477 170.448 34 171 34C171.552 34 172 34.4477 172 35Z" fill="white" fill-opacity="0.3"/>
<path d="M172 52C172 52.5523 171.552 53 171 53C170.448 53 170 52.5523 170 52C170 51.4477 170.448 51 171 51C171.552 51 172 51.4477 172 52Z" fill="white" fill-opacity="0.3"/>
<path d="M172 69C172 69.5523 171.552 70 171 70C170.448 70 170 69.5523 170 69C170 68.4477 170.448 68 171 68C171.552 68 172 68.4477 172 69Z" fill="white" fill-opacity="0.3"/>
<path d="M172 86C172 86.5523 171.552 87 171 87C170.448 87 170 86.5523 170 86C170 85.4477 170.448 85 171 85C171.552 85 172 85.4477 172 86Z" fill="white" fill-opacity="0.3"/>
<path d="M172 103C172 103.552 171.552 104 171 104C170.448 104 170 103.552 170 103C170 102.448 170.448 102 171 102C171.552 102 172 102.448 172 103Z" fill="white" fill-opacity="0.3"/>
<path d="M172 120C172 120.552 171.552 121 171 121C170.448 121 170 120.552 170 120C170 119.448 170.448 119 171 119C171.552 119 172 119.448 172 120Z" fill="white" fill-opacity="0.3"/>
<path d="M172 137C172 137.552 171.552 138 171 138C170.448 138 170 137.552 170 137C170 136.448 170.448 136 171 136C171.552 136 172 136.448 172 137Z" fill="white" fill-opacity="0.3"/>
<path d="M172 154C172 154.552 171.552 155 171 155C170.448 155 170 154.552 170 154C170 153.448 170.448 153 171 153C171.552 153 172 153.448 172 154Z" fill="white" fill-opacity="0.3"/>
<path d="M172 171C172 171.552 171.552 172 171 172C170.448 172 170 171.552 170 171C170 170.448 170.448 170 171 170C171.552 170 172 170.448 172 171Z" fill="white" fill-opacity="0.3"/>
<path d="M172 188C172 188.552 171.552 189 171 189C170.448 189 170 188.552 170 188C170 187.448 170.448 187 171 187C171.552 187 172 187.448 172 188Z" fill="white" fill-opacity="0.3"/>
<path d="M172 205C172 205.552 171.552 206 171 206C170.448 206 170 205.552 170 205C170 204.448 170.448 204 171 204C171.552 204 172 204.448 172 205Z" fill="white" fill-opacity="0.3"/>
<path d="M172 222C172 222.552 171.552 223 171 223C170.448 223 170 222.552 170 222C170 221.448 170.448 221 171 221C171.552 221 172 221.448 172 222Z" fill="white" fill-opacity="0.3"/>
<path d="M189 1C189 1.55228 188.552 2 188 2C187.448 2 187 1.55228 187 1C187 0.447715 187.448 0 188 0C188.552 0 189 0.447715 189 1Z" fill="white" fill-opacity="0.3"/>
<path d="M189 18C189 18.5523 188.552 19 188 19C187.448 19 187 18.5523 187 18C187 17.4477 187.448 17 188 17C188.552 17 189 17.4477 189 18Z" fill="white" fill-opacity="0.3"/>
<path d="M189 35C189 35.5523 188.552 36 188 36C187.448 36 187 35.5523 187 35C187 34.4477 187.448 34 188 34C188.552 34 189 34.4477 189 35Z" fill="white" fill-opacity="0.3"/>
<path d="M189 52C189 52.5523 188.552 53 188 53C187.448 53 187 52.5523 187 52C187 51.4477 187.448 51 188 51C188.552 51 189 51.4477 189 52Z" fill="white" fill-opacity="0.3"/>
<path d="M189 69C189 69.5523 188.552 70 188 70C187.448 70 187 69.5523 187 69C187 68.4477 187.448 68 188 68C188.552 68 189 68.4477 189 69Z" fill="white" fill-opacity="0.3"/>
<path d="M189 86C189 86.5523 188.552 87 188 87C187.448 87 187 86.5523 187 86C187 85.4477 187.448 85 188 85C188.552 85 189 85.4477 189 86Z" fill="white" fill-opacity="0.3"/>
<path d="M189 103C189 103.552 188.552 104 188 104C187.448 104 187 103.552 187 103C187 102.448 187.448 102 188 102C188.552 102 189 102.448 189 103Z" fill="white" fill-opacity="0.3"/>
<path d="M189 120C189 120.552 188.552 121 188 121C187.448 121 187 120.552 187 120C187 119.448 187.448 119 188 119C188.552 119 189 119.448 189 120Z" fill="white" fill-opacity="0.3"/>
<path d="M189 137C189 137.552 188.552 138 188 138C187.448 138 187 137.552 187 137C187 136.448 187.448 136 188 136C188.552 136 189 136.448 189 137Z" fill="white" fill-opacity="0.3"/>
<path d="M189 154C189 154.552 188.552 155 188 155C187.448 155 187 154.552 187 154C187 153.448 187.448 153 188 153C188.552 153 189 153.448 189 154Z" fill="white" fill-opacity="0.3"/>
<path d="M189 171C189 171.552 188.552 172 188 172C187.448 172 187 171.552 187 171C187 170.448 187.448 170 188 170C188.552 170 189 170.448 189 171Z" fill="white" fill-opacity="0.3"/>
<path d="M189 188C189 188.552 188.552 189 188 189C187.448 189 187 188.552 187 188C187 187.448 187.448 187 188 187C188.552 187 189 187.448 189 188Z" fill="white" fill-opacity="0.3"/>
<path d="M189 205C189 205.552 188.552 206 188 206C187.448 206 187 205.552 187 205C187 204.448 187.448 204 188 204C188.552 204 189 204.448 189 205Z" fill="white" fill-opacity="0.3"/>
<path d="M189 222C189 222.552 188.552 223 188 223C187.448 223 187 222.552 187 222C187 221.448 187.448 221 188 221C188.552 221 189 221.448 189 222Z" fill="white" fill-opacity="0.3"/>
<path d="M206 1C206 1.55228 205.552 2 205 2C204.448 2 204 1.55228 204 1C204 0.447715 204.448 0 205 0C205.552 0 206 0.447715 206 1Z" fill="white" fill-opacity="0.3"/>
<path d="M206 18C206 18.5523 205.552 19 205 19C204.448 19 204 18.5523 204 18C204 17.4477 204.448 17 205 17C205.552 17 206 17.4477 206 18Z" fill="white" fill-opacity="0.3"/>
<path d="M206 35C206 35.5523 205.552 36 205 36C204.448 36 204 35.5523 204 35C204 34.4477 204.448 34 205 34C205.552 34 206 34.4477 206 35Z" fill="white" fill-opacity="0.3"/>
<path d="M206 52C206 52.5523 205.552 53 205 53C204.448 53 204 52.5523 204 52C204 51.4477 204.448 51 205 51C205.552 51 206 51.4477 206 52Z" fill="white" fill-opacity="0.3"/>
<path d="M206 69C206 69.5523 205.552 70 205 70C204.448 70 204 69.5523 204 69C204 68.4477 204.448 68 205 68C205.552 68 206 68.4477 206 69Z" fill="white" fill-opacity="0.3"/>
<path d="M206 86C206 86.5523 205.552 87 205 87C204.448 87 204 86.5523 204 86C204 85.4477 204.448 85 205 85C205.552 85 206 85.4477 206 86Z" fill="white" fill-opacity="0.3"/>
<path d="M206 103C206 103.552 205.552 104 205 104C204.448 104 204 103.552 204 103C204 102.448 204.448 102 205 102C205.552 102 206 102.448 206 103Z" fill="white" fill-opacity="0.3"/>
<path d="M206 120C206 120.552 205.552 121 205 121C204.448 121 204 120.552 204 120C204 119.448 204.448 119 205 119C205.552 119 206 119.448 206 120Z" fill="white" fill-opacity="0.3"/>
<path d="M206 137C206 137.552 205.552 138 205 138C204.448 138 204 137.552 204 137C204 136.448 204.448 136 205 136C205.552 136 206 136.448 206 137Z" fill="white" fill-opacity="0.3"/>
<path d="M206 154C206 154.552 205.552 155 205 155C204.448 155 204 154.552 204 154C204 153.448 204.448 153 205 153C205.552 153 206 153.448 206 154Z" fill="white" fill-opacity="0.3"/>
<path d="M206 171C206 171.552 205.552 172 205 172C204.448 172 204 171.552 204 171C204 170.448 204.448 170 205 170C205.552 170 206 170.448 206 171Z" fill="white" fill-opacity="0.3"/>
<path d="M206 188C206 188.552 205.552 189 205 189C204.448 189 204 188.552 204 188C204 187.448 204.448 187 205 187C205.552 187 206 187.448 206 188Z" fill="white" fill-opacity="0.3"/>
<path d="M206 205C206 205.552 205.552 206 205 206C204.448 206 204 205.552 204 205C204 204.448 204.448 204 205 204C205.552 204 206 204.448 206 205Z" fill="white" fill-opacity="0.3"/>
<path d="M206 222C206 222.552 205.552 223 205 223C204.448 223 204 222.552 204 222C204 221.448 204.448 221 205 221C205.552 221 206 221.448 206 222Z" fill="white" fill-opacity="0.3"/>
<path d="M223 1C223 1.55228 222.552 2 222 2C221.448 2 221 1.55228 221 1C221 0.447715 221.448 0 222 0C222.552 0 223 0.447715 223 1Z" fill="white" fill-opacity="0.3"/>
<path d="M223 18C223 18.5523 222.552 19 222 19C221.448 19 221 18.5523 221 18C221 17.4477 221.448 17 222 17C222.552 17 223 17.4477 223 18Z" fill="white" fill-opacity="0.3"/>
<path d="M223 35C223 35.5523 222.552 36 222 36C221.448 36 221 35.5523 221 35C221 34.4477 221.448 34 222 34C222.552 34 223 34.4477 223 35Z" fill="white" fill-opacity="0.3"/>
<path d="M223 52C223 52.5523 222.552 53 222 53C221.448 53 221 52.5523 221 52C221 51.4477 221.448 51 222 51C222.552 51 223 51.4477 223 52Z" fill="white" fill-opacity="0.3"/>
<path d="M223 69C223 69.5523 222.552 70 222 70C221.448 70 221 69.5523 221 69C221 68.4477 221.448 68 222 68C222.552 68 223 68.4477 223 69Z" fill="white" fill-opacity="0.3"/>
<path d="M223 86C223 86.5523 222.552 87 222 87C221.448 87 221 86.5523 221 86C221 85.4477 221.448 85 222 85C222.552 85 223 85.4477 223 86Z" fill="white" fill-opacity="0.3"/>
<path d="M223 103C223 103.552 222.552 104 222 104C221.448 104 221 103.552 221 103C221 102.448 221.448 102 222 102C222.552 102 223 102.448 223 103Z" fill="white" fill-opacity="0.3"/>
<path d="M223 120C223 120.552 222.552 121 222 121C221.448 121 221 120.552 221 120C221 119.448 221.448 119 222 119C222.552 119 223 119.448 223 120Z" fill="white" fill-opacity="0.3"/>
<path d="M223 137C223 137.552 222.552 138 222 138C221.448 138 221 137.552 221 137C221 136.448 221.448 136 222 136C222.552 136 223 136.448 223 137Z" fill="white" fill-opacity="0.3"/>
<path d="M223 154C223 154.552 222.552 155 222 155C221.448 155 221 154.552 221 154C221 153.448 221.448 153 222 153C222.552 153 223 153.448 223 154Z" fill="white" fill-opacity="0.3"/>
<path d="M223 171C223 171.552 222.552 172 222 172C221.448 172 221 171.552 221 171C221 170.448 221.448 170 222 170C222.552 170 223 170.448 223 171Z" fill="white" fill-opacity="0.3"/>
<path d="M223 188C223 188.552 222.552 189 222 189C221.448 189 221 188.552 221 188C221 187.448 221.448 187 222 187C222.552 187 223 187.448 223 188Z" fill="white" fill-opacity="0.3"/>
<path d="M223 205C223 205.552 222.552 206 222 206C221.448 206 221 205.552 221 205C221 204.448 221.448 204 222 204C222.552 204 223 204.448 223 205Z" fill="white" fill-opacity="0.3"/>
<path d="M223 222C223 222.552 222.552 223 222 223C221.448 223 221 222.552 221 222C221 221.448 221.448 221 222 221C222.552 221 223 221.448 223 222Z" fill="white" fill-opacity="0.3"/>
<path d="M240 1C240 1.55228 239.552 2 239 2C238.448 2 238 1.55228 238 1C238 0.447715 238.448 0 239 0C239.552 0 240 0.447715 240 1Z" fill="white" fill-opacity="0.3"/>
<path d="M240 18C240 18.5523 239.552 19 239 19C238.448 19 238 18.5523 238 18C238 17.4477 238.448 17 239 17C239.552 17 240 17.4477 240 18Z" fill="white" fill-opacity="0.3"/>
<path d="M240 35C240 35.5523 239.552 36 239 36C238.448 36 238 35.5523 238 35C238 34.4477 238.448 34 239 34C239.552 34 240 34.4477 240 35Z" fill="white" fill-opacity="0.3"/>
<path d="M240 52C240 52.5523 239.552 53 239 53C238.448 53 238 52.5523 238 52C238 51.4477 238.448 51 239 51C239.552 51 240 51.4477 240 52Z" fill="white" fill-opacity="0.3"/>
<path d="M240 69C240 69.5523 239.552 70 239 70C238.448 70 238 69.5523 238 69C238 68.4477 238.448 68 239 68C239.552 68 240 68.4477 240 69Z" fill="white" fill-opacity="0.3"/>
<path d="M240 86C240 86.5523 239.552 87 239 87C238.448 87 238 86.5523 238 86C238 85.4477 238.448 85 239 85C239.552 85 240 85.4477 240 86Z" fill="white" fill-opacity="0.3"/>
<path d="M240 103C240 103.552 239.552 104 239 104C238.448 104 238 103.552 238 103C238 102.448 238.448 102 239 102C239.552 102 240 102.448 240 103Z" fill="white" fill-opacity="0.3"/>
<path d="M240 120C240 120.552 239.552 121 239 121C238.448 121 238 120.552 238 120C238 119.448 238.448 119 239 119C239.552 119 240 119.448 240 120Z" fill="white" fill-opacity="0.3"/>
<path d="M240 137C240 137.552 239.552 138 239 138C238.448 138 238 137.552 238 137C238 136.448 238.448 136 239 136C239.552 136 240 136.448 240 137Z" fill="white" fill-opacity="0.3"/>
<path d="M240 154C240 154.552 239.552 155 239 155C238.448 155 238 154.552 238 154C238 153.448 238.448 153 239 153C239.552 153 240 153.448 240 154Z" fill="white" fill-opacity="0.3"/>
<path d="M240 171C240 171.552 239.552 172 239 172C238.448 172 238 171.552 238 171C238 170.448 238.448 170 239 170C239.552 170 240 170.448 240 171Z" fill="white" fill-opacity="0.3"/>
<path d="M240 188C240 188.552 239.552 189 239 189C238.448 189 238 188.552 238 188C238 187.448 238.448 187 239 187C239.552 187 240 187.448 240 188Z" fill="white" fill-opacity="0.3"/>
<path d="M240 205C240 205.552 239.552 206 239 206C238.448 206 238 205.552 238 205C238 204.448 238.448 204 239 204C239.552 204 240 204.448 240 205Z" fill="white" fill-opacity="0.3"/>
<path d="M240 222C240 222.552 239.552 223 239 223C238.448 223 238 222.552 238 222C238 221.448 238.448 221 239 221C239.552 221 240 221.448 240 222Z" fill="white" fill-opacity="0.3"/>
<path d="M257 1C257 1.55228 256.552 2 256 2C255.448 2 255 1.55228 255 1C255 0.447715 255.448 0 256 0C256.552 0 257 0.447715 257 1Z" fill="white" fill-opacity="0.3"/>
<path d="M257 18C257 18.5523 256.552 19 256 19C255.448 19 255 18.5523 255 18C255 17.4477 255.448 17 256 17C256.552 17 257 17.4477 257 18Z" fill="white" fill-opacity="0.3"/>
<path d="M257 35C257 35.5523 256.552 36 256 36C255.448 36 255 35.5523 255 35C255 34.4477 255.448 34 256 34C256.552 34 257 34.4477 257 35Z" fill="white" fill-opacity="0.3"/>
<path d="M257 52C257 52.5523 256.552 53 256 53C255.448 53 255 52.5523 255 52C255 51.4477 255.448 51 256 51C256.552 51 257 51.4477 257 52Z" fill="white" fill-opacity="0.3"/>
<path d="M257 69C257 69.5523 256.552 70 256 70C255.448 70 255 69.5523 255 69C255 68.4477 255.448 68 256 68C256.552 68 257 68.4477 257 69Z" fill="white" fill-opacity="0.3"/>
<path d="M257 86C257 86.5523 256.552 87 256 87C255.448 87 255 86.5523 255 86C255 85.4477 255.448 85 256 85C256.552 85 257 85.4477 257 86Z" fill="white" fill-opacity="0.3"/>
<path d="M257 103C257 103.552 256.552 104 256 104C255.448 104 255 103.552 255 103C255 102.448 255.448 102 256 102C256.552 102 257 102.448 257 103Z" fill="white" fill-opacity="0.3"/>
<path d="M257 120C257 120.552 256.552 121 256 121C255.448 121 255 120.552 255 120C255 119.448 255.448 119 256 119C256.552 119 257 119.448 257 120Z" fill="white" fill-opacity="0.3"/>
<path d="M257 137C257 137.552 256.552 138 256 138C255.448 138 255 137.552 255 137C255 136.448 255.448 136 256 136C256.552 136 257 136.448 257 137Z" fill="white" fill-opacity="0.3"/>
<path d="M257 154C257 154.552 256.552 155 256 155C255.448 155 255 154.552 255 154C255 153.448 255.448 153 256 153C256.552 153 257 153.448 257 154Z" fill="white" fill-opacity="0.3"/>
<path d="M257 171C257 171.552 256.552 172 256 172C255.448 172 255 171.552 255 171C255 170.448 255.448 170 256 170C256.552 170 257 170.448 257 171Z" fill="white" fill-opacity="0.3"/>
<path d="M257 188C257 188.552 256.552 189 256 189C255.448 189 255 188.552 255 188C255 187.448 255.448 187 256 187C256.552 187 257 187.448 257 188Z" fill="white" fill-opacity="0.3"/>
<path d="M257 205C257 205.552 256.552 206 256 206C255.448 206 255 205.552 255 205C255 204.448 255.448 204 256 204C256.552 204 257 204.448 257 205Z" fill="white" fill-opacity="0.3"/>
<path d="M257 222C257 222.552 256.552 223 256 223C255.448 223 255 222.552 255 222C255 221.448 255.448 221 256 221C256.552 221 257 221.448 257 222Z" fill="white" fill-opacity="0.3"/>
<path d="M274 1C274 1.55228 273.552 2 273 2C272.448 2 272 1.55228 272 1C272 0.447715 272.448 0 273 0C273.552 0 274 0.447715 274 1Z" fill="white" fill-opacity="0.3"/>
<path d="M274 18C274 18.5523 273.552 19 273 19C272.448 19 272 18.5523 272 18C272 17.4477 272.448 17 273 17C273.552 17 274 17.4477 274 18Z" fill="white" fill-opacity="0.3"/>
<path d="M274 35C274 35.5523 273.552 36 273 36C272.448 36 272 35.5523 272 35C272 34.4477 272.448 34 273 34C273.552 34 274 34.4477 274 35Z" fill="white" fill-opacity="0.3"/>
<path d="M274 52C274 52.5523 273.552 53 273 53C272.448 53 272 52.5523 272 52C272 51.4477 272.448 51 273 51C273.552 51 274 51.4477 274 52Z" fill="white" fill-opacity="0.3"/>
<path d="M274 69C274 69.5523 273.552 70 273 70C272.448 70 272 69.5523 272 69C272 68.4477 272.448 68 273 68C273.552 68 274 68.4477 274 69Z" fill="white" fill-opacity="0.3"/>
<path d="M274 86C274 86.5523 273.552 87 273 87C272.448 87 272 86.5523 272 86C272 85.4477 272.448 85 273 85C273.552 85 274 85.4477 274 86Z" fill="white" fill-opacity="0.3"/>
<path d="M274 103C274 103.552 273.552 104 273 104C272.448 104 272 103.552 272 103C272 102.448 272.448 102 273 102C273.552 102 274 102.448 274 103Z" fill="white" fill-opacity="0.3"/>
<path d="M274 120C274 120.552 273.552 121 273 121C272.448 121 272 120.552 272 120C272 119.448 272.448 119 273 119C273.552 119 274 119.448 274 120Z" fill="white" fill-opacity="0.3"/>
<path d="M274 137C274 137.552 273.552 138 273 138C272.448 138 272 137.552 272 137C272 136.448 272.448 136 273 136C273.552 136 274 136.448 274 137Z" fill="white" fill-opacity="0.3"/>
<path d="M274 154C274 154.552 273.552 155 273 155C272.448 155 272 154.552 272 154C272 153.448 272.448 153 273 153C273.552 153 274 153.448 274 154Z" fill="white" fill-opacity="0.3"/>
<path d="M274 171C274 171.552 273.552 172 273 172C272.448 172 272 171.552 272 171C272 170.448 272.448 170 273 170C273.552 170 274 170.448 274 171Z" fill="white" fill-opacity="0.3"/>
<path d="M274 188C274 188.552 273.552 189 273 189C272.448 189 272 188.552 272 188C272 187.448 272.448 187 273 187C273.552 187 274 187.448 274 188Z" fill="white" fill-opacity="0.3"/>
<path d="M274 205C274 205.552 273.552 206 273 206C272.448 206 272 205.552 272 205C272 204.448 272.448 204 273 204C273.552 204 274 204.448 274 205Z" fill="white" fill-opacity="0.3"/>
<path d="M274 222C274 222.552 273.552 223 273 223C272.448 223 272 222.552 272 222C272 221.448 272.448 221 273 221C273.552 221 274 221.448 274 222Z" fill="white" fill-opacity="0.3"/>
<path d="M291 1C291 1.55228 290.552 2 290 2C289.448 2 289 1.55228 289 1C289 0.447715 289.448 0 290 0C290.552 0 291 0.447715 291 1Z" fill="white" fill-opacity="0.3"/>
<path d="M291 18C291 18.5523 290.552 19 290 19C289.448 19 289 18.5523 289 18C289 17.4477 289.448 17 290 17C290.552 17 291 17.4477 291 18Z" fill="white" fill-opacity="0.3"/>
<path d="M291 35C291 35.5523 290.552 36 290 36C289.448 36 289 35.5523 289 35C289 34.4477 289.448 34 290 34C290.552 34 291 34.4477 291 35Z" fill="white" fill-opacity="0.3"/>
<path d="M291 52C291 52.5523 290.552 53 290 53C289.448 53 289 52.5523 289 52C289 51.4477 289.448 51 290 51C290.552 51 291 51.4477 291 52Z" fill="white" fill-opacity="0.3"/>
<path d="M291 69C291 69.5523 290.552 70 290 70C289.448 70 289 69.5523 289 69C289 68.4477 289.448 68 290 68C290.552 68 291 68.4477 291 69Z" fill="white" fill-opacity="0.3"/>
<path d="M291 86C291 86.5523 290.552 87 290 87C289.448 87 289 86.5523 289 86C289 85.4477 289.448 85 290 85C290.552 85 291 85.4477 291 86Z" fill="white" fill-opacity="0.3"/>
<path d="M291 103C291 103.552 290.552 104 290 104C289.448 104 289 103.552 289 103C289 102.448 289.448 102 290 102C290.552 102 291 102.448 291 103Z" fill="white" fill-opacity="0.3"/>
<path d="M291 120C291 120.552 290.552 121 290 121C289.448 121 289 120.552 289 120C289 119.448 289.448 119 290 119C290.552 119 291 119.448 291 120Z" fill="white" fill-opacity="0.3"/>
<path d="M291 137C291 137.552 290.552 138 290 138C289.448 138 289 137.552 289 137C289 136.448 289.448 136 290 136C290.552 136 291 136.448 291 137Z" fill="white" fill-opacity="0.3"/>
<path d="M291 154C291 154.552 290.552 155 290 155C289.448 155 289 154.552 289 154C289 153.448 289.448 153 290 153C290.552 153 291 153.448 291 154Z" fill="white" fill-opacity="0.3"/>
<path d="M291 171C291 171.552 290.552 172 290 172C289.448 172 289 171.552 289 171C289 170.448 289.448 170 290 170C290.552 170 291 170.448 291 171Z" fill="white" fill-opacity="0.3"/>
<path d="M291 188C291 188.552 290.552 189 290 189C289.448 189 289 188.552 289 188C289 187.448 289.448 187 290 187C290.552 187 291 187.448 291 188Z" fill="white" fill-opacity="0.3"/>
<path d="M291 205C291 205.552 290.552 206 290 206C289.448 206 289 205.552 289 205C289 204.448 289.448 204 290 204C290.552 204 291 204.448 291 205Z" fill="white" fill-opacity="0.3"/>
<path d="M291 222C291 222.552 290.552 223 290 223C289.448 223 289 222.552 289 222C289 221.448 289.448 221 290 221C290.552 221 291 221.448 291 222Z" fill="white" fill-opacity="0.3"/>
<path d="M308 1C308 1.55228 307.552 2 307 2C306.448 2 306 1.55228 306 1C306 0.447715 306.448 0 307 0C307.552 0 308 0.447715 308 1Z" fill="white" fill-opacity="0.3"/>
<path d="M308 18C308 18.5523 307.552 19 307 19C306.448 19 306 18.5523 306 18C306 17.4477 306.448 17 307 17C307.552 17 308 17.4477 308 18Z" fill="white" fill-opacity="0.3"/>
<path d="M308 35C308 35.5523 307.552 36 307 36C306.448 36 306 35.5523 306 35C306 34.4477 306.448 34 307 34C307.552 34 308 34.4477 308 35Z" fill="white" fill-opacity="0.3"/>
<path d="M308 52C308 52.5523 307.552 53 307 53C306.448 53 306 52.5523 306 52C306 51.4477 306.448 51 307 51C307.552 51 308 51.4477 308 52Z" fill="white" fill-opacity="0.3"/>
<path d="M308 69C308 69.5523 307.552 70 307 70C306.448 70 306 69.5523 306 69C306 68.4477 306.448 68 307 68C307.552 68 308 68.4477 308 69Z" fill="white" fill-opacity="0.3"/>
<path d="M308 86C308 86.5523 307.552 87 307 87C306.448 87 306 86.5523 306 86C306 85.4477 306.448 85 307 85C307.552 85 308 85.4477 308 86Z" fill="white" fill-opacity="0.3"/>
<path d="M308 103C308 103.552 307.552 104 307 104C306.448 104 306 103.552 306 103C306 102.448 306.448 102 307 102C307.552 102 308 102.448 308 103Z" fill="white" fill-opacity="0.3"/>
<path d="M308 120C308 120.552 307.552 121 307 121C306.448 121 306 120.552 306 120C306 119.448 306.448 119 307 119C307.552 119 308 119.448 308 120Z" fill="white" fill-opacity="0.3"/>
<path d="M308 137C308 137.552 307.552 138 307 138C306.448 138 306 137.552 306 137C306 136.448 306.448 136 307 136C307.552 136 308 136.448 308 137Z" fill="white" fill-opacity="0.3"/>
<path d="M308 154C308 154.552 307.552 155 307 155C306.448 155 306 154.552 306 154C306 153.448 306.448 153 307 153C307.552 153 308 153.448 308 154Z" fill="white" fill-opacity="0.3"/>
<path d="M308 171C308 171.552 307.552 172 307 172C306.448 172 306 171.552 306 171C306 170.448 306.448 170 307 170C307.552 170 308 170.448 308 171Z" fill="white" fill-opacity="0.3"/>
<path d="M308 188C308 188.552 307.552 189 307 189C306.448 189 306 188.552 306 188C306 187.448 306.448 187 307 187C307.552 187 308 187.448 308 188Z" fill="white" fill-opacity="0.3"/>
<path d="M308 205C308 205.552 307.552 206 307 206C306.448 206 306 205.552 306 205C306 204.448 306.448 204 307 204C307.552 204 308 204.448 308 205Z" fill="white" fill-opacity="0.3"/>
<path d="M308 222C308 222.552 307.552 223 307 223C306.448 223 306 222.552 306 222C306 221.448 306.448 221 307 221C307.552 221 308 221.448 308 222Z" fill="white" fill-opacity="0.3"/>
<path d="M325 1C325 1.55228 324.552 2 324 2C323.448 2 323 1.55228 323 1C323 0.447715 323.448 0 324 0C324.552 0 325 0.447715 325 1Z" fill="white" fill-opacity="0.3"/>
<path d="M325 18C325 18.5523 324.552 19 324 19C323.448 19 323 18.5523 323 18C323 17.4477 323.448 17 324 17C324.552 17 325 17.4477 325 18Z" fill="white" fill-opacity="0.3"/>
<path d="M325 35C325 35.5523 324.552 36 324 36C323.448 36 323 35.5523 323 35C323 34.4477 323.448 34 324 34C324.552 34 325 34.4477 325 35Z" fill="white" fill-opacity="0.3"/>
<path d="M325 52C325 52.5523 324.552 53 324 53C323.448 53 323 52.5523 323 52C323 51.4477 323.448 51 324 51C324.552 51 325 51.4477 325 52Z" fill="white" fill-opacity="0.3"/>
<path d="M325 69C325 69.5523 324.552 70 324 70C323.448 70 323 69.5523 323 69C323 68.4477 323.448 68 324 68C324.552 68 325 68.4477 325 69Z" fill="white" fill-opacity="0.3"/>
<path d="M325 86C325 86.5523 324.552 87 324 87C323.448 87 323 86.5523 323 86C323 85.4477 323.448 85 324 85C324.552 85 325 85.4477 325 86Z" fill="white" fill-opacity="0.3"/>
<path d="M325 103C325 103.552 324.552 104 324 104C323.448 104 323 103.552 323 103C323 102.448 323.448 102 324 102C324.552 102 325 102.448 325 103Z" fill="white" fill-opacity="0.3"/>
<path d="M325 120C325 120.552 324.552 121 324 121C323.448 121 323 120.552 323 120C323 119.448 323.448 119 324 119C324.552 119 325 119.448 325 120Z" fill="white" fill-opacity="0.3"/>
<path d="M325 137C325 137.552 324.552 138 324 138C323.448 138 323 137.552 323 137C323 136.448 323.448 136 324 136C324.552 136 325 136.448 325 137Z" fill="white" fill-opacity="0.3"/>
<path d="M325 154C325 154.552 324.552 155 324 155C323.448 155 323 154.552 323 154C323 153.448 323.448 153 324 153C324.552 153 325 153.448 325 154Z" fill="white" fill-opacity="0.3"/>
<path d="M325 171C325 171.552 324.552 172 324 172C323.448 172 323 171.552 323 171C323 170.448 323.448 170 324 170C324.552 170 325 170.448 325 171Z" fill="white" fill-opacity="0.3"/>
<path d="M325 188C325 188.552 324.552 189 324 189C323.448 189 323 188.552 323 188C323 187.448 323.448 187 324 187C324.552 187 325 187.448 325 188Z" fill="white" fill-opacity="0.3"/>
<path d="M325 205C325 205.552 324.552 206 324 206C323.448 206 323 205.552 323 205C323 204.448 323.448 204 324 204C324.552 204 325 204.448 325 205Z" fill="white" fill-opacity="0.3"/>
<path d="M325 222C325 222.552 324.552 223 324 223C323.448 223 323 222.552 323 222C323 221.448 323.448 221 324 221C324.552 221 325 221.448 325 222Z" fill="white" fill-opacity="0.3"/>
</g>
<defs>
<clipPath id="clip0_264_330">
<rect width="334" height="223" fill="white"/>
</clipPath>
</defs>
</svg>
