<?xml version="1.0" standalone="no"?>
<!DOCTYPE svg PUBLIC "-//W3C//DTD SVG 20010904//EN"
 "http://www.w3.org/TR/2001/REC-SVG-20010904/DTD/svg10.dtd">
<svg version="1.0" xmlns="http://www.w3.org/2000/svg"
 width="156.000000pt" height="156.000000pt" viewBox="0 0 156.000000 156.000000"
 preserveAspectRatio="xMidYMid meet">
<metadata>
Created by potrace 1.14, written by Peter Selinger 2001-2017
</metadata>
<g transform="translate(0.000000,156.000000) scale(0.100000,-0.100000)"
fill="#000000" stroke="none">
<path d="M205 1480 c-49 -38 -109 -86 -132 -107 l-43 -38 71 -124 72 -124 -28
-56 c-46 -93 -66 -170 -70 -272 -5 -112 6 -187 42 -279 108 -274 387 -456 682
-445 106 4 137 10 224 40 92 31 165 77 247 153 221 203 280 520 149 793 l-32
67 43 73 c23 41 56 97 71 126 l29 51 -77 64 c-94 78 -189 148 -200 148 -4 0
-35 -55 -68 -123 -33 -67 -97 -184 -142 -260 l-82 -139 27 -24 c15 -13 30 -24
34 -24 13 0 78 -99 93 -140 29 -82 23 -200 -15 -270 -42 -79 -133 -154 -218
-179 -172 -49 -362 40 -431 202 -62 145 -5 331 128 418 l24 15 -90 155 c-50
85 -115 202 -144 261 -30 59 -58 108 -64 107 -5 0 -50 -31 -100 -69z"/>
<path d="M715 883 c-94 -51 -112 -172 -36 -241 51 -47 101 -53 168 -23 47 22
83 78 83 130 0 109 -121 184 -215 134z"/>
</g>
</svg>
