<svg width="32" height="41" viewBox="0 0 32 41" fill="none" xmlns="http://www.w3.org/2000/svg">
<path d="M25.8437 14.8909H22.5504V18.1619H25.8437V14.8909Z" fill="url(#paint0_linear_3_228)"/>
<path d="M20.3799 14.8909H17.0866V18.1619H20.3799V14.8909Z" fill="url(#paint1_linear_3_228)"/>
<path d="M14.9134 14.8909H11.6201V18.1619H14.9134V14.8909Z" fill="url(#paint2_linear_3_228)"/>
<path d="M9.44691 14.8909H6.15361V18.1619H9.44691V14.8909Z" fill="url(#paint3_linear_3_228)"/>
<path d="M20.3799 9.9273H17.0866V13.1982H20.3799V9.9273Z" fill="url(#paint4_linear_3_228)"/>
<path d="M14.9134 9.9273H11.6201V13.1982H14.9134V9.9273Z" fill="url(#paint5_linear_3_228)"/>
<path d="M9.44691 9.9273H6.15361V13.1982H9.44691V9.9273Z" fill="url(#paint6_linear_3_228)"/>
<path d="M25.8437 4.96365H22.5504V8.2346H25.8437V4.96365Z" fill="url(#paint7_linear_3_228)"/>
<path d="M20.3799 4.96365H17.0866V8.2346H20.3799V4.96365Z" fill="url(#paint8_linear_3_228)"/>
<path d="M14.9134 0H11.6201V3.27095H14.9134V0Z" fill="url(#paint9_linear_3_228)"/>
<path d="M20.3799 0H17.0866V3.27095H20.3799V0Z" fill="url(#paint10_linear_3_228)"/>
<path d="M15.9987 21.6298C7.3541 21.6298 0.344116 20.0994 0.344116 18.2098V23.224C0.344116 25.1137 7.35142 26.6467 15.9987 26.6467C24.6459 26.6467 31.6559 25.1137 31.6559 23.224V18.2098C31.6559 20.0994 24.6459 21.6298 15.9987 21.6298ZM24.1984 24.6346C23.6384 24.6346 23.1828 24.1821 23.1828 23.6259C23.1828 23.0697 23.6384 22.6172 24.1984 22.6172C24.7585 22.6172 25.214 23.0697 25.214 23.6259C25.214 24.1821 24.7585 24.6346 24.1984 24.6346Z" fill="url(#paint11_linear_3_228)"/>
<path d="M15.9987 28.8104C7.3541 28.8104 0.344116 27.2774 0.344116 25.3878V30.402C0.344116 32.2917 7.35142 33.8247 15.9987 33.8247C24.6459 33.8247 31.6559 32.2943 31.6559 30.402V25.3878C31.6559 27.2774 24.6459 28.8104 15.9987 28.8104ZM24.1984 31.8578C23.6384 31.8578 23.1828 31.4054 23.1828 30.8491C23.1828 30.2929 23.6384 29.8404 24.1984 29.8404C24.7585 29.8404 25.214 30.2929 25.214 30.8491C25.214 31.4054 24.7585 31.8578 24.1984 31.8578Z" fill="url(#paint12_linear_3_228)"/>
<path d="M15.9987 35.9858C7.3541 35.9858 0.344116 34.4528 0.344116 32.5631V37.58C0.344116 39.467 7.35142 41 15.9987 41C24.6459 41 31.6559 39.4696 31.6559 37.58V32.5631C31.6559 34.4528 24.6459 35.9858 15.9987 35.9858ZM24.1984 39.0758C23.6384 39.0758 23.1828 38.6233 23.1828 38.0671C23.1828 37.5108 23.6384 37.0584 24.1984 37.0584C24.7585 37.0584 25.214 37.5108 25.214 38.0671C25.214 38.6233 24.7585 39.0758 24.1984 39.0758Z" fill="url(#paint13_linear_3_228)"/>
<defs>
<linearGradient id="paint0_linear_3_228" x1="32.829" y1="7.42058" x2="-1.93165" y2="23.3683" gradientUnits="userSpaceOnUse">
<stop stop-color="#E2562A"/>
<stop offset="1" stop-color="#E09423"/>
</linearGradient>
<linearGradient id="paint1_linear_3_228" x1="32.829" y1="7.42058" x2="-1.93165" y2="23.3683" gradientUnits="userSpaceOnUse">
<stop stop-color="#E2562A"/>
<stop offset="1" stop-color="#E09423"/>
</linearGradient>
<linearGradient id="paint2_linear_3_228" x1="32.829" y1="7.42058" x2="-1.93165" y2="23.3683" gradientUnits="userSpaceOnUse">
<stop stop-color="#E2562A"/>
<stop offset="1" stop-color="#E09423"/>
</linearGradient>
<linearGradient id="paint3_linear_3_228" x1="32.829" y1="7.42058" x2="-1.93165" y2="23.3683" gradientUnits="userSpaceOnUse">
<stop stop-color="#E2562A"/>
<stop offset="1" stop-color="#E09423"/>
</linearGradient>
<linearGradient id="paint4_linear_3_228" x1="32.829" y1="7.42058" x2="-1.93165" y2="23.3683" gradientUnits="userSpaceOnUse">
<stop stop-color="#E2562A"/>
<stop offset="1" stop-color="#E09423"/>
</linearGradient>
<linearGradient id="paint5_linear_3_228" x1="32.829" y1="7.42058" x2="-1.93165" y2="23.3683" gradientUnits="userSpaceOnUse">
<stop stop-color="#E2562A"/>
<stop offset="1" stop-color="#E09423"/>
</linearGradient>
<linearGradient id="paint6_linear_3_228" x1="32.829" y1="7.42058" x2="-1.93165" y2="23.3683" gradientUnits="userSpaceOnUse">
<stop stop-color="#E2562A"/>
<stop offset="1" stop-color="#E09423"/>
</linearGradient>
<linearGradient id="paint7_linear_3_228" x1="32.829" y1="7.42058" x2="-1.93165" y2="23.3683" gradientUnits="userSpaceOnUse">
<stop stop-color="#E2562A"/>
<stop offset="1" stop-color="#E09423"/>
</linearGradient>
<linearGradient id="paint8_linear_3_228" x1="32.829" y1="7.42058" x2="-1.93165" y2="23.3683" gradientUnits="userSpaceOnUse">
<stop stop-color="#E2562A"/>
<stop offset="1" stop-color="#E09423"/>
</linearGradient>
<linearGradient id="paint9_linear_3_228" x1="32.829" y1="7.42058" x2="-1.93165" y2="23.3683" gradientUnits="userSpaceOnUse">
<stop stop-color="#E2562A"/>
<stop offset="1" stop-color="#E09423"/>
</linearGradient>
<linearGradient id="paint10_linear_3_228" x1="32.829" y1="7.42058" x2="-1.93165" y2="23.3683" gradientUnits="userSpaceOnUse">
<stop stop-color="#E2562A"/>
<stop offset="1" stop-color="#E09423"/>
</linearGradient>
<linearGradient id="paint11_linear_3_228" x1="32.829" y1="7.42058" x2="-1.93165" y2="23.3683" gradientUnits="userSpaceOnUse">
<stop stop-color="#E2562A"/>
<stop offset="1" stop-color="#E09423"/>
</linearGradient>
<linearGradient id="paint12_linear_3_228" x1="32.829" y1="7.42058" x2="-1.93165" y2="23.3683" gradientUnits="userSpaceOnUse">
<stop stop-color="#E2562A"/>
<stop offset="1" stop-color="#E09423"/>
</linearGradient>
<linearGradient id="paint13_linear_3_228" x1="32.829" y1="7.42058" x2="-1.93165" y2="23.3683" gradientUnits="userSpaceOnUse">
<stop stop-color="#E2562A"/>
<stop offset="1" stop-color="#E09423"/>
</linearGradient>
</defs>
</svg>
