<svg width="26" height="41" viewBox="0 0 26 41" fill="none" xmlns="http://www.w3.org/2000/svg">
<path d="M23.2415 16.2381V10.2483C23.2415 4.59524 18.6463 0 12.9966 0C7.34693 0 2.74829 4.59524 2.74829 10.2449V16.2347H0.561218V41H3.16666V28.6837C2.69387 28.5272 2.35033 28.0884 2.35033 27.5612C2.35033 26.9048 2.88095 26.3741 3.53741 26.3741C4.19387 26.3741 4.72448 26.9048 4.72448 27.5612C4.72448 28.085 4.38095 28.5272 3.90816 28.6837V41H7.90476V34.4898C7.43197 34.3333 7.08843 33.8946 7.08843 33.3673C7.08843 32.7109 7.61904 32.1803 8.2755 32.1803C8.93197 32.1803 9.46258 32.7109 9.46258 33.3673C9.46258 33.8912 9.11904 34.3333 8.64625 34.4898V41H12.6292V39.4456C12.1565 39.2891 11.8129 38.8503 11.8129 38.3231C11.8129 37.6667 12.3435 37.1361 13 37.1361C13.6565 37.1361 14.1871 37.6667 14.1871 38.3231C14.1871 38.8469 13.8435 39.2891 13.3707 39.4456V41H17.5646V37.0714C17.0918 36.915 16.7483 36.4762 16.7483 35.949C16.7483 35.2925 17.2789 34.7619 17.9354 34.7619C18.5918 34.7619 19.1224 35.2925 19.1224 35.949C19.1224 36.4728 18.7789 36.915 18.3061 37.0714V41H22.2789V35.3299L20.6326 33.6837V30.2925C20.1599 30.1361 19.8163 29.6973 19.8163 29.1701C19.8163 28.5136 20.3469 27.983 21.0034 27.983C21.6599 27.983 22.1905 28.5136 22.1905 29.1701C22.1905 29.6939 21.8469 30.1361 21.3741 30.2925V33.3775L23.0204 35.0238V41H25.4388V16.2381H23.2517H23.2415ZM5.71088 10.2449C5.71088 6.22789 8.97959 2.95918 12.9966 2.95918C17.0136 2.95918 20.2823 6.22789 20.2823 10.2449V16.2347H5.71088V10.2449ZM13.966 26.2075V29.0714C13.966 29.6088 13.5306 30.0408 12.9966 30.0408C12.4626 30.0408 12.0272 29.6054 12.0272 29.0714V26.2075C10.8435 25.8027 9.98979 24.6837 9.98979 23.3639C9.98979 21.7041 11.3367 20.3571 12.9966 20.3571C14.6565 20.3571 16.0034 21.7041 16.0034 23.3639C16.0034 24.6837 15.1497 25.8027 13.966 26.2075Z" fill="url(#paint0_linear_3_272)"/>
<defs>
<linearGradient id="paint0_linear_3_272" x1="26.3708" y1="7.42058" x2="-3.1391" y2="18.1773" gradientUnits="userSpaceOnUse">
<stop stop-color="#23A04D"/>
<stop offset="1" stop-color="#078933"/>
</linearGradient>
</defs>
</svg>
