<svg width="41" height="41" viewBox="0 0 41 41" fill="none" xmlns="http://www.w3.org/2000/svg">
<path d="M18.5188 0.40302C19.3596 0.0677807 19.3926 0.0549573 20.435 0L20.2371 0.0256468C19.9404 0.0806041 19.5355 0.155712 18.5206 0.40302" fill="url(#paint0_linear_126_11751)"/>
<path d="M14.985 1.3776C16.3828 0.602699 16.8261 0.423171 18.7569 0.100755C19.5392 0.0311425 19.7242 0.0128234 20.4331 0C19.4256 0.062285 18.8705 0.0970913 18.1048 0.505607C17.2932 0.714445 16.3755 0.952594 14.985 1.3776Z" fill="url(#paint1_linear_126_11751)"/>
<path d="M10.8064 2.87793C12.3727 1.81726 12.8747 1.50949 15.1188 0.74742C16.064 0.525759 16.8811 0.33524 18.2806 0.155712C16.5037 0.512935 15.9743 0.643001 14.4116 1.55712C13.3491 1.90702 12.25 2.26791 10.8046 2.87793" fill="url(#paint2_linear_126_11751)"/>
<path d="M7.21407 4.8509C7.71235 4.44971 8.38099 3.91846 8.90309 3.54841C9.52777 3.15638 10.365 2.64162 11.0134 2.28806C11.4513 2.08288 12.0283 1.78978 12.4753 1.60292C13.2814 1.28967 13.4719 1.21456 14.6003 0.882981C12.6438 1.60475 12.0558 1.84473 10.2404 3.12524C9.22001 3.60886 8.25642 4.06684 7.2159 4.84907" fill="url(#paint3_linear_126_11751)"/>
<path d="M6.76158 5.22278C6.8715 5.12386 6.98324 5.02676 7.09499 4.9315L6.8312 5.16232L6.76158 5.22278Z" fill="url(#paint4_linear_126_11751)"/>
<path d="M21.7081 0.294938C20.8929 0.0293106 20.8618 0.020151 20.4331 0L20.6914 0.00366382C21.1714 0.0384701 21.6257 0.0696126 21.71 0.294938" fill="url(#paint5_linear_126_11751)"/>
<path d="M20.6145 1.17792C20.4844 0.954426 20.2994 0.659488 20.2225 0.414012C20.1895 0.309593 20.206 0.148385 20.2573 0.0512935C20.3104 0.0366382 20.3818 0.0183191 20.4331 0.00183191C20.9754 0.0769403 20.9974 0.0787722 21.7081 0.386533C21.5946 0.577052 21.4975 0.743756 20.6145 1.17975" fill="url(#paint6_linear_126_11751)"/>
<path d="M17.2328 2.59399C17.3903 1.52781 17.4838 1.26035 18.2037 0.599035C18.8797 0.414012 19.1874 0.327912 20.1016 0.0897636C19.9239 0.366382 19.8652 0.45981 20.2591 1.34279C19.4494 1.69818 19.0794 1.86122 17.2346 2.59215" fill="url(#paint7_linear_126_11751)"/>
<path d="M12.5303 4.49185C13.1256 3.11059 13.3436 2.7497 14.5106 1.71467C15.5328 1.38492 16.271 1.14678 17.764 0.723605C17.0588 1.38309 16.8646 1.60659 16.6319 2.83213C15.3203 3.35057 13.9647 3.88732 12.5303 4.49368" fill="url(#paint8_linear_126_11751)"/>
<path d="M7.57862 6.8202C8.41763 5.25026 8.69975 4.78129 10.2294 3.34141C11.2827 2.88892 12.1163 2.5317 13.9207 1.91252C12.8289 2.90724 12.5156 3.23149 11.8268 4.79411C10.5408 5.362 9.20902 5.94822 7.57862 6.8202Z" fill="url(#paint9_linear_126_11751)"/>
<path d="M3.56673 9.52411C4.55779 7.7325 4.88754 7.19208 6.58572 5.42795C7.36978 4.85456 7.98896 4.40025 9.65234 3.60703C8.23627 4.9773 7.87539 5.40047 6.93378 7.17743C5.7925 7.8534 4.71351 8.49091 3.56856 9.52411" fill="url(#paint10_linear_126_11751)"/>
<path d="M2.02793 11.4604C2.09021 11.3322 2.15433 11.2058 2.22028 11.0794C2.70756 10.1396 3.2663 9.24199 3.88732 8.39382C4.50833 7.54564 5.1953 6.74693 5.93722 6.005C5.94638 5.99584 5.95371 5.98852 5.96287 5.97936L6.20102 5.75403C4.64389 7.41558 4.24454 7.91752 3.14906 9.92896C2.44194 10.7368 2.38332 10.8028 2.02793 11.4604Z" fill="url(#paint11_linear_126_11751)"/>
<path d="M23.1517 0.203342C22.3383 0.113578 21.2502 0.0293106 20.4331 0C21.677 0.0219829 22.0196 0.040302 23.1517 0.203342Z" fill="url(#paint12_linear_126_11751)"/>
<path d="M25.2785 0.992896C23.3294 0.338904 22.7908 0.196014 20.9974 0.0164872C20.8288 0.0109915 20.6017 0 20.4331 0C22.1863 0.0696126 22.2907 0.0732764 23.551 0.280282C24.205 0.441491 24.8242 0.595371 25.2785 0.992896Z" fill="url(#paint13_linear_126_11751)"/>
<path d="M25.2987 2.32286C23.9101 1.39408 23.4503 1.09915 22.1277 0.467137C22.0745 0.291274 22.0269 0.139225 21.2886 0.0439659C22.8586 0.272955 23.3532 0.366382 25.4214 1.14678C25.5863 1.46003 25.7292 1.72932 25.2987 2.32286Z" fill="url(#paint14_linear_126_11751)"/>
<path d="M22.8531 4.14561C21.7851 2.80282 21.4975 2.44194 20.8233 1.49301C21.4169 1.17609 21.928 0.9013 22.0983 0.578884C23.236 1.21822 23.6207 1.4582 25.1082 2.55185C24.6465 2.98785 24.2472 3.36522 22.8531 4.14745" fill="url(#paint15_linear_126_11751)"/>
<path d="M18.0883 6.40619C17.4819 4.77396 17.3519 4.3398 17.2291 3.03914C18.4089 2.55735 19.5245 2.1012 20.4368 1.67986C21.0065 2.61963 21.197 2.90907 22.3127 4.43872C20.8618 5.17148 20.5431 5.31621 18.0883 6.40802" fill="url(#paint16_linear_126_11751)"/>
<path d="M12.2482 9.05147C12.0705 7.37344 12.01 6.80738 12.3617 5.05241C13.7888 4.44422 14.2193 4.26102 16.6008 3.29378C16.6594 4.52482 16.6997 4.92235 17.3042 6.75426C15.6079 7.509 14.005 8.22162 12.2482 9.05147Z" fill="url(#paint17_linear_126_11751)"/>
<path d="M6.54908 12.0283C6.6077 9.94545 6.67365 9.37206 7.29833 7.48152C8.54587 6.81837 9.449 6.34024 11.6381 5.3675C11.3304 6.79089 11.226 7.27086 11.4165 9.449C9.86301 10.2129 8.39748 10.9347 6.55091 12.0283" fill="url(#paint18_linear_126_11751)"/>
<path d="M2.12868 15.2855C2.30821 13.1531 2.38881 12.5028 3.22416 10.2734C4.09249 9.52594 4.77762 8.93789 6.64251 7.85157C6.05996 9.60654 5.90608 10.1598 5.82914 12.4698C4.57428 13.2868 3.38904 14.0599 2.12868 15.2873" fill="url(#paint19_linear_126_11751)"/>
<path d="M0.0274787 18.7698C0.0842679 18.2293 0.148385 17.5076 0.234485 16.9708C0.410348 15.9596 0.659488 14.9759 0.976409 14.0214C1.15227 13.5561 1.36844 12.9296 1.56262 12.4735C2.04624 11.5502 2.0554 11.5337 2.79916 10.6892C2.03159 12.7684 1.86489 13.3821 1.6707 15.7599C0.928779 16.6631 0.28761 17.4416 0.0256468 18.7698" fill="url(#paint20_linear_126_11751)"/>
<path d="M27.8725 1.39225C28.6401 1.72383 28.7573 1.77329 29.252 2.0664C27.1746 1.1651 26.5279 0.906796 24.0237 0.351727C23.2891 0.207006 22.5948 0.0696126 21.1806 0.0128234L21.7961 0.0439659C23.9266 0.183191 25.9692 0.648496 27.8744 1.39225" fill="url(#paint21_linear_126_11751)"/>
<path d="M30.6845 3.81037C28.8068 2.60864 28.2243 2.25325 26.026 1.28417C25.7109 0.992896 25.4379 0.740092 24.4065 0.448818C26.5499 0.994728 27.2075 1.18158 29.5725 2.28256C30.0928 2.7094 30.5435 3.07761 30.6827 3.81221" fill="url(#paint22_linear_126_11751)"/>
<path d="M29.7795 6.00134C28.2334 4.58344 27.7058 4.11264 25.8922 2.74603C26.1707 2.3247 26.4107 1.96014 26.1487 1.4582C28.1162 2.40713 28.6786 2.71306 30.7083 4.09249C30.6424 4.63107 30.5838 5.09638 29.7795 6.00317" fill="url(#paint23_linear_126_11751)"/>
<path d="M26.3649 8.58617C25.306 7.21407 25.0202 6.84402 23.2873 4.68603C24.2124 4.14012 25.0111 3.67115 25.6779 2.98968C27.3633 4.35812 27.856 4.79778 29.4498 6.34024C28.7427 6.97225 28.1327 7.51816 26.363 8.58617" fill="url(#paint24_linear_126_11751)"/>
<path d="M20.7024 11.5117C19.5392 9.46365 19.2259 8.91225 18.3612 7.04919C20.4973 6.0911 21.4718 5.65328 22.7249 4.99196C24.1806 6.935 25.1705 8.26314 25.6944 8.97636C24.3736 9.70546 23.3294 10.2825 20.7006 11.5117" fill="url(#paint25_linear_126_11751)"/>
<path d="M13.9189 14.7267C12.9974 12.3306 12.8087 11.7297 12.3746 9.78607C14.0636 8.98919 14.6956 8.69242 17.5552 7.41191C18.2916 9.14307 18.5426 9.67982 19.7663 11.9459C17.8538 12.8325 16.0457 13.6679 13.9189 14.7267Z" fill="url(#paint26_linear_126_11751)"/>
<path d="M7.6867 18.1762C6.97042 15.7691 6.81105 15.1004 6.58389 12.8399C7.99446 12.0192 9.013 11.4256 11.5264 10.1946C11.9349 12.1804 12.0924 12.7812 12.9882 15.1957C11.2882 16.0805 9.68348 16.9159 7.68853 18.1762" fill="url(#paint27_linear_126_11751)"/>
<path d="M3.08494 21.7906C2.40164 19.3596 2.24409 18.6067 2.11769 16.1611C3.06479 15.2836 3.81404 14.5893 5.85296 13.2905C6.05263 15.3697 6.1369 16.0237 6.92096 18.6763C5.58733 19.6069 4.43322 20.4093 3.08494 21.7924" fill="url(#paint28_linear_126_11751)"/>
<path d="M0.965417 25.3005C0.245476 22.9337 0.0952594 22.2467 0 19.6967C0.256468 18.7533 0.457978 18.0095 1.65971 16.6447C1.78062 18.8669 1.85023 19.6271 2.62513 22.2944C1.88687 23.2195 1.24936 24.0182 0.967249 25.3005" fill="url(#paint29_linear_126_11751)"/>
<path d="M34.5059 5.59649L34.5187 5.60931C32.8681 4.17676 32.3424 3.74809 30.0598 2.46942C29.5909 2.1812 29.2049 1.96686 28.9021 1.82642C30.9776 2.76985 32.87 4.04852 34.5059 5.59649Z" fill="url(#paint30_linear_126_11751)"/>
<path d="M35.682 8.13185C34.0864 6.46665 33.5808 5.9647 31.4301 4.3343C31.3074 3.8177 31.1993 3.37255 30.3768 2.7039C32.4523 3.93128 33.0165 4.31415 34.8283 5.94089C35.2973 6.5729 35.7039 7.11697 35.682 8.13369" fill="url(#paint31_linear_126_11751)"/>
<path d="M34.2421 11.0043C32.8352 9.19619 32.3442 8.588 30.428 6.62969C30.9428 6.00134 31.3861 5.4591 31.4429 4.62924C33.3811 6.17354 33.9123 6.63885 35.6417 8.51289C35.4493 9.22734 35.2826 9.84469 34.2421 11.0043Z" fill="url(#paint32_linear_126_11751)"/>
<path d="M30.2485 14.1753C29.0065 12.228 28.6126 11.6235 26.9089 9.30794C28.0722 8.57701 29.0761 7.945 30.0855 6.98324C31.8972 8.92141 32.3534 9.46182 33.8317 11.4311C32.8498 12.3324 32.15 12.9461 30.2503 14.1735" fill="url(#paint33_linear_126_11751)"/>
<path d="M24.1776 17.59C23.1957 15.8259 23.0454 15.5548 21.1641 12.3141C22.8952 11.4824 24.3882 10.7643 26.2256 9.71096C27.7589 11.8799 28.1766 12.4918 29.5066 14.6406C28.0337 15.5199 26.9694 16.1538 24.1757 17.5918" fill="url(#paint34_linear_126_11751)"/>
<path d="M16.9727 21.1897C15.6244 18.5444 15.2745 17.8318 14.2816 15.5914C16.0732 14.7066 17.0588 14.2175 20.2188 12.7556C21.6501 15.2849 22.6467 17.0606 23.2085 18.0828C21.1311 19.1215 19.0409 20.1309 16.9745 21.1897" fill="url(#paint35_linear_126_11751)"/>
<path d="M10.5811 24.7308C9.16139 22.0635 8.89026 21.4352 8.00179 19.0958C9.45816 18.1927 10.6086 17.4801 13.34 16.0714C14.1735 18.0004 14.5179 18.7972 15.9944 21.6972C14.2303 22.6296 12.5632 23.5107 10.5829 24.7308" fill="url(#paint36_linear_126_11751)"/>
<path d="M6.12041 28.0594C4.73183 25.7878 4.3746 25.132 3.40186 22.712C4.31598 21.8309 5.18064 20.9992 7.23422 19.6014C8.14651 21.9921 8.44511 22.6809 9.82454 25.2126C8.49824 26.1011 7.35329 26.8686 6.12041 28.0612" fill="url(#paint37_linear_126_11751)"/>
<path d="M4.16943 31.1223C2.69474 29.0669 2.31737 28.4642 1.29333 26.167C1.55529 25.2767 1.7623 24.5733 2.94205 23.2066C3.84335 25.3866 4.14378 26.0589 5.68625 28.5045C5.00478 29.3142 4.41674 30.0122 4.16943 31.1223Z" fill="url(#paint38_linear_126_11751)"/>
<path d="M39.0747 11.9624C39.3568 12.838 39.3733 12.8912 39.3623 13.6276C38.3401 11.6052 38.003 10.986 36.2975 8.83714C36.2645 8.13552 36.2352 7.53099 35.453 6.56374L36.129 7.31299C37.3069 8.7144 38.3016 10.277 39.0747 11.9605" fill="url(#paint39_linear_126_11751)"/>
<path d="M37.7136 17.0075C36.739 14.8568 36.4184 14.1955 34.8118 11.7938C35.4676 11.0025 36.0355 10.3173 36.2517 9.23466C37.7923 11.2424 38.1917 11.8323 39.3037 14.0892C39.0692 14.9319 38.8677 15.661 37.7136 17.0093" fill="url(#paint40_linear_126_11751)"/>
<path d="M33.48 20.5852C32.5641 18.3521 32.2618 17.6596 30.7651 15.0308C32.0676 14.1552 33.1924 13.4004 34.3923 12.2298C35.8377 14.4629 36.2132 15.1078 37.2647 17.4966C36.3195 18.4125 35.5739 19.1361 33.48 20.5852Z" fill="url(#paint41_linear_126_11751)"/>
<path d="M27.3926 24.1556C26.5352 22.2266 26.1047 21.2575 24.6685 18.5005C26.4143 17.579 28.063 16.7089 30.0177 15.5035C31.3641 17.9271 31.7159 18.6177 32.7161 21.0945C31.2671 22.0067 30.1221 22.7285 27.3907 24.1556" fill="url(#paint42_linear_126_11751)"/>
<path d="M20.4863 27.5226C18.5444 24.1025 18.4675 23.9687 17.4618 22.1167C19.5392 21.0761 21.6275 20.0576 23.6976 19.0006C24.8627 21.252 25.3225 22.157 26.451 24.6392C24.6392 25.546 23.6408 26.0461 20.4863 27.5226Z" fill="url(#paint43_linear_126_11751)"/>
<path d="M14.342 30.6332C12.8106 28.4258 12.3965 27.8011 11.0812 25.6083C12.5761 24.7161 13.6569 24.0731 16.4817 22.6168C17.4874 24.4469 17.7256 24.8828 19.5227 27.9733C17.7567 28.8215 16.2289 29.5542 14.342 30.6332Z" fill="url(#paint44_linear_126_11751)"/>
<path d="M10.3448 33.436C8.54953 31.4393 8.10254 30.886 6.66266 28.8727C7.67204 27.955 8.39015 27.3284 10.3265 26.0791C11.5502 28.0667 11.9404 28.6841 13.6386 31.0454C12.4387 31.7965 11.4018 32.445 10.343 33.436" fill="url(#paint45_linear_126_11751)"/>
<path d="M8.85912 35.878C6.9521 34.2696 6.43184 33.7878 4.75747 31.8606C4.97364 31.1278 5.16049 30.494 6.23766 29.3087C7.60609 31.159 8.08422 31.7818 9.98208 33.8006C9.43251 34.4509 8.95988 35.0115 8.85912 35.878Z" fill="url(#paint46_linear_126_11751)"/>
<path d="M40.9212 19.8378V19.977C40.7179 17.6963 40.6281 16.9965 39.7232 14.4739C39.6975 13.5928 39.6957 13.5415 39.5125 12.9901C40.3515 15.1206 40.8443 17.427 40.9212 19.8378Z" fill="url(#paint47_linear_126_11751)"/>
<path d="M39.2579 23.5749C39.0289 21.1842 38.9006 20.4331 38.0653 17.9106C38.7852 16.9965 39.4081 16.2087 39.6645 14.9447C40.4816 17.2822 40.6593 17.9601 40.8663 20.4918C40.6281 21.4443 40.4413 22.1973 39.256 23.5767" fill="url(#paint48_linear_126_11751)"/>
<path d="M35.0774 26.9786C34.799 24.8682 34.6891 24.205 33.8207 21.5195C35.2753 20.4881 36.3982 19.6601 37.6146 18.407C38.3437 20.6768 38.5636 21.4462 38.8054 24.0658C37.8638 24.9561 37.1218 25.6614 35.0793 26.9804" fill="url(#paint49_linear_126_11751)"/>
<path d="M29.3674 30.1368C28.8929 28.1125 28.717 27.5025 27.7626 25.0422C29.4645 24.1446 31.071 23.2982 33.0587 22.0232C33.8501 24.4633 34.0314 25.143 34.3447 27.4365C32.9268 28.2737 31.9027 28.8801 29.3674 30.1368Z" fill="url(#paint50_linear_126_11751)"/>
<path d="M23.2488 32.9945C22.4721 31.2268 22.2101 30.6772 20.9479 28.3488C22.8732 27.4475 24.6923 26.5957 26.8302 25.5185C27.8084 27.9623 28.0136 28.5741 28.51 30.5563C26.8393 31.3532 26.1469 31.6829 23.2488 32.9945Z" fill="url(#paint51_linear_126_11751)"/>
<path d="M17.9143 35.4988C16.042 32.9872 15.9303 32.837 14.8769 31.3843C16.2344 30.6369 17.3079 30.047 19.9971 28.7903C21.2117 30.9172 21.5323 31.4906 22.4244 33.3664C20.2335 34.3593 19.1343 34.8576 17.9143 35.4988Z" fill="url(#paint52_linear_126_11751)"/>
<path d="M14.7689 37.6C13.0579 36.1546 12.5614 35.6966 10.975 34.101C11.7187 33.447 12.3599 32.8828 14.1882 31.7873C15.269 33.2125 15.5951 33.643 17.3262 35.8212C16.3498 36.3909 15.509 36.8819 14.7707 37.6018" fill="url(#paint53_linear_126_11751)"/>
<path d="M14.1259 39.2414C12.1511 38.2118 11.5887 37.8857 9.58273 36.4404C9.68165 35.878 9.76775 35.3925 10.6251 34.4509C12.1639 35.9219 12.6896 36.4092 14.5289 37.8583C14.2046 38.3071 13.9244 38.6955 14.124 39.2414" fill="url(#paint54_linear_126_11751)"/>
<path d="M39.562 27.8853C39.1443 28.6877 39.0692 28.8324 38.3785 29.6293C39.0527 27.508 39.1919 26.8833 39.2817 24.4688C40.0126 23.5547 40.6446 22.7652 40.8809 21.4224C40.8535 21.8748 40.837 22.4775 40.7893 22.9264C40.586 24.6539 40.1665 26.3154 39.562 27.8835" fill="url(#paint55_linear_126_11751)"/>
<path d="M34.5279 32.5421C35.0261 30.7413 35.1544 30.1716 35.1342 27.8157C36.3909 26.984 37.5798 26.1982 38.8292 24.9525C38.7431 27.1196 38.69 27.7791 37.9554 30.058C37.0889 30.8219 36.4056 31.4264 34.5279 32.5439" fill="url(#paint56_linear_126_11751)"/>
<path d="M29.4626 35.1086C29.7136 33.546 29.7667 33.0495 29.5029 30.9007C31.071 30.1184 32.5531 29.3802 34.4106 28.2646C34.4381 30.3914 34.3978 30.9776 33.8647 32.9231C32.6007 33.6082 31.6884 34.1029 29.4626 35.1104" fill="url(#paint57_linear_126_11751)"/>
<path d="M24.3717 37.2812C24.2472 35.9897 24.1867 35.5739 23.5181 33.6742C25.2419 32.8993 26.8686 32.1665 28.6602 31.3092C28.9332 33.24 28.9643 33.764 28.7244 35.4383C27.2643 36.074 26.8228 36.2663 24.3717 37.2812Z" fill="url(#paint58_linear_126_11751)"/>
<path d="M20.3525 39.0032C19.759 38.0525 19.5721 37.763 18.3429 36.0795C19.5648 35.4658 19.8561 35.3192 22.7175 34.0332C23.3825 35.7296 23.5291 36.1802 23.7232 37.5505C22.4098 38.0983 21.3711 38.5306 20.3544 39.0032" fill="url(#paint59_linear_126_11751)"/>
<path d="M18.4565 40.2233C17.2621 39.496 16.8627 39.2304 15.3514 38.0671C15.8625 37.6036 16.304 37.2024 17.775 36.3836C18.9346 37.8473 19.2094 38.1953 19.933 39.2047C19.2772 39.551 18.713 39.8514 18.4565 40.2233Z" fill="url(#paint60_linear_126_11751)"/>
<path d="M19.05 40.8883C17.4435 40.5713 16.9378 40.4523 14.8568 39.5821C14.7359 39.2395 14.6315 38.9428 15.1334 38.3071C16.544 39.3018 17.013 39.6206 18.3961 40.3497C18.3924 40.5585 18.3906 40.738 19.0519 40.8883" fill="url(#paint61_linear_126_11751)"/>
<path d="M35.376 34.5334L35.1983 34.7092C36.6804 32.9891 37.0596 32.4725 38.0634 30.4097C38.7541 29.5945 38.809 29.5286 39.1296 28.9185C38.1917 30.9978 36.9185 32.8938 35.376 34.5352" fill="url(#paint62_linear_126_11751)"/>
<path d="M31.7452 36.9496C33.0825 35.5134 33.4196 35.0719 34.2714 33.2364C35.4218 32.5402 36.5063 31.8844 37.6494 30.8237C36.739 32.6611 36.4349 33.218 34.8191 35.0463C34.0387 35.6435 33.4232 36.1143 31.747 36.9496" fill="url(#paint63_linear_126_11751)"/>
<path d="M27.4017 38.7504C28.4166 37.6861 28.7079 37.3417 29.3069 35.7076C30.6167 35.1177 31.9705 34.5077 33.6192 33.6046C32.8608 35.2295 32.6044 35.7168 31.1608 37.2281C30.0946 37.7062 29.252 38.0836 27.4017 38.7486" fill="url(#paint64_linear_126_11751)"/>
<path d="M23.4173 40.0566C24.0475 39.3201 24.2197 39.0728 24.3699 37.7667C25.7237 37.2189 27.1233 36.651 28.587 36.0209C28.074 37.4681 27.878 37.8491 26.7954 38.9629C25.7255 39.3275 25.0202 39.5674 23.4173 40.0566Z" fill="url(#paint65_linear_126_11751)"/>
<path d="M20.8765 40.8186C20.9937 40.4413 21.0047 40.3039 20.5559 39.3659C21.4242 38.9776 21.8199 38.8017 23.7452 38.0195C23.6628 39.1608 23.5914 39.4484 22.952 40.1958C22.2596 40.4028 21.5671 40.6025 20.8765 40.8168" fill="url(#paint66_linear_126_11751)"/>
<path d="M20.4331 41C19.9733 40.9341 19.7443 40.9011 18.865 40.4486C19.0391 40.2251 19.1874 40.0309 20.1657 39.5491C20.6511 40.346 20.7409 40.5329 20.6859 40.8773C20.6017 40.9066 20.4881 40.9469 20.4057 40.9835C20.413 40.9872 20.4221 40.9982 20.4313 40.9982" fill="url(#paint67_linear_126_11751)"/>
<path d="M20.4331 41L19.6637 40.9634C19.2351 40.8937 18.8302 40.8278 18.8339 40.5567C19.7645 40.9231 19.7828 40.9304 20.4331 41Z" fill="url(#paint68_linear_126_11751)"/>
<path d="M34.559 35.3559L34.5938 35.3229L34.603 35.3138C34.5883 35.3284 34.5737 35.3412 34.559 35.3559Z" fill="url(#paint69_linear_126_11751)"/>
<path d="M29.0248 39.1186C28.2078 39.463 28.0374 39.5345 26.9786 39.8752C28.8819 39.0765 29.4516 38.8127 31.1883 37.4553C32.216 36.946 33.1869 36.4642 34.2183 35.6453C33.8061 36.0062 33.2602 36.4898 32.8297 36.8287C31.6554 37.7227 30.3804 38.4921 29.0266 39.1168" fill="url(#paint70_linear_126_11751)"/>
<path d="M23.2378 40.7325C24.9525 40.2911 25.4636 40.1353 26.9401 39.1351C28.0301 38.7559 29.1585 38.3639 30.6131 37.719C29.1164 38.8475 28.6364 39.1772 26.4546 40.0291C25.5075 40.2801 24.6905 40.4944 23.2378 40.7325Z" fill="url(#paint71_linear_126_11751)"/>
<path d="M20.4331 41C21.622 40.9267 22.113 40.8974 23.1059 40.3057C23.9724 40.0621 24.9543 39.7836 26.3502 39.3293C25.0312 40.1848 24.6099 40.3881 22.7487 40.8058C21.6367 40.9487 21.3143 40.9799 20.4331 41Z" fill="url(#paint72_linear_126_11751)"/>
<path d="M20.4331 41C20.5357 40.9817 20.6804 40.9689 20.772 40.9194C21.1073 40.837 21.732 40.6812 22.6681 40.4266C21.9609 40.8022 21.6385 40.9725 20.4331 41Z" fill="url(#paint73_linear_126_11751)"/>
<path d="M20.4331 41C20.4881 40.9872 20.5595 40.9707 20.6145 40.9579L20.4331 41Z" fill="url(#paint74_linear_126_11751)"/>
<defs>
<linearGradient id="paint0_linear_126_11751" x1="42.4544" y1="7.42058" x2="2.00536" y2="31.6733" gradientUnits="userSpaceOnUse">
<stop stop-color="#007893"/>
<stop offset="1" stop-color="#00B388"/>
</linearGradient>
<linearGradient id="paint1_linear_126_11751" x1="42.4544" y1="7.42058" x2="2.00536" y2="31.6733" gradientUnits="userSpaceOnUse">
<stop stop-color="#007893"/>
<stop offset="1" stop-color="#00B388"/>
</linearGradient>
<linearGradient id="paint2_linear_126_11751" x1="42.4544" y1="7.42058" x2="2.00536" y2="31.6733" gradientUnits="userSpaceOnUse">
<stop stop-color="#007893"/>
<stop offset="1" stop-color="#00B388"/>
</linearGradient>
<linearGradient id="paint3_linear_126_11751" x1="42.4544" y1="7.42058" x2="2.00536" y2="31.6733" gradientUnits="userSpaceOnUse">
<stop stop-color="#007893"/>
<stop offset="1" stop-color="#00B388"/>
</linearGradient>
<linearGradient id="paint4_linear_126_11751" x1="42.4544" y1="7.42058" x2="2.00536" y2="31.6733" gradientUnits="userSpaceOnUse">
<stop stop-color="#007893"/>
<stop offset="1" stop-color="#00B388"/>
</linearGradient>
<linearGradient id="paint5_linear_126_11751" x1="42.4544" y1="7.42058" x2="2.00536" y2="31.6733" gradientUnits="userSpaceOnUse">
<stop stop-color="#007893"/>
<stop offset="1" stop-color="#00B388"/>
</linearGradient>
<linearGradient id="paint6_linear_126_11751" x1="42.4544" y1="7.42058" x2="2.00536" y2="31.6733" gradientUnits="userSpaceOnUse">
<stop stop-color="#007893"/>
<stop offset="1" stop-color="#00B388"/>
</linearGradient>
<linearGradient id="paint7_linear_126_11751" x1="42.4544" y1="7.42058" x2="2.00536" y2="31.6733" gradientUnits="userSpaceOnUse">
<stop stop-color="#007893"/>
<stop offset="1" stop-color="#00B388"/>
</linearGradient>
<linearGradient id="paint8_linear_126_11751" x1="42.4544" y1="7.42058" x2="2.00536" y2="31.6733" gradientUnits="userSpaceOnUse">
<stop stop-color="#007893"/>
<stop offset="1" stop-color="#00B388"/>
</linearGradient>
<linearGradient id="paint9_linear_126_11751" x1="42.4544" y1="7.42058" x2="2.00536" y2="31.6733" gradientUnits="userSpaceOnUse">
<stop stop-color="#007893"/>
<stop offset="1" stop-color="#00B388"/>
</linearGradient>
<linearGradient id="paint10_linear_126_11751" x1="42.4544" y1="7.42058" x2="2.00536" y2="31.6733" gradientUnits="userSpaceOnUse">
<stop stop-color="#007893"/>
<stop offset="1" stop-color="#00B388"/>
</linearGradient>
<linearGradient id="paint11_linear_126_11751" x1="42.4544" y1="7.42058" x2="2.00536" y2="31.6733" gradientUnits="userSpaceOnUse">
<stop stop-color="#007893"/>
<stop offset="1" stop-color="#00B388"/>
</linearGradient>
<linearGradient id="paint12_linear_126_11751" x1="42.4544" y1="7.42058" x2="2.00536" y2="31.6733" gradientUnits="userSpaceOnUse">
<stop stop-color="#007893"/>
<stop offset="1" stop-color="#00B388"/>
</linearGradient>
<linearGradient id="paint13_linear_126_11751" x1="42.4544" y1="7.42058" x2="2.00536" y2="31.6733" gradientUnits="userSpaceOnUse">
<stop stop-color="#007893"/>
<stop offset="1" stop-color="#00B388"/>
</linearGradient>
<linearGradient id="paint14_linear_126_11751" x1="42.4544" y1="7.42058" x2="2.00536" y2="31.6733" gradientUnits="userSpaceOnUse">
<stop stop-color="#007893"/>
<stop offset="1" stop-color="#00B388"/>
</linearGradient>
<linearGradient id="paint15_linear_126_11751" x1="42.4544" y1="7.42058" x2="2.00536" y2="31.6733" gradientUnits="userSpaceOnUse">
<stop stop-color="#007893"/>
<stop offset="1" stop-color="#00B388"/>
</linearGradient>
<linearGradient id="paint16_linear_126_11751" x1="42.4544" y1="7.42058" x2="2.00536" y2="31.6733" gradientUnits="userSpaceOnUse">
<stop stop-color="#007893"/>
<stop offset="1" stop-color="#00B388"/>
</linearGradient>
<linearGradient id="paint17_linear_126_11751" x1="42.4544" y1="7.42058" x2="2.00536" y2="31.6733" gradientUnits="userSpaceOnUse">
<stop stop-color="#007893"/>
<stop offset="1" stop-color="#00B388"/>
</linearGradient>
<linearGradient id="paint18_linear_126_11751" x1="42.4544" y1="7.42058" x2="2.00536" y2="31.6733" gradientUnits="userSpaceOnUse">
<stop stop-color="#007893"/>
<stop offset="1" stop-color="#00B388"/>
</linearGradient>
<linearGradient id="paint19_linear_126_11751" x1="42.4544" y1="7.42058" x2="2.00536" y2="31.6733" gradientUnits="userSpaceOnUse">
<stop stop-color="#007893"/>
<stop offset="1" stop-color="#00B388"/>
</linearGradient>
<linearGradient id="paint20_linear_126_11751" x1="42.4544" y1="7.42058" x2="2.00536" y2="31.6733" gradientUnits="userSpaceOnUse">
<stop stop-color="#007893"/>
<stop offset="1" stop-color="#00B388"/>
</linearGradient>
<linearGradient id="paint21_linear_126_11751" x1="42.4544" y1="7.42058" x2="2.00536" y2="31.6733" gradientUnits="userSpaceOnUse">
<stop stop-color="#007893"/>
<stop offset="1" stop-color="#00B388"/>
</linearGradient>
<linearGradient id="paint22_linear_126_11751" x1="42.4544" y1="7.42058" x2="2.00536" y2="31.6733" gradientUnits="userSpaceOnUse">
<stop stop-color="#007893"/>
<stop offset="1" stop-color="#00B388"/>
</linearGradient>
<linearGradient id="paint23_linear_126_11751" x1="42.4544" y1="7.42058" x2="2.00536" y2="31.6733" gradientUnits="userSpaceOnUse">
<stop stop-color="#007893"/>
<stop offset="1" stop-color="#00B388"/>
</linearGradient>
<linearGradient id="paint24_linear_126_11751" x1="42.4544" y1="7.42058" x2="2.00536" y2="31.6733" gradientUnits="userSpaceOnUse">
<stop stop-color="#007893"/>
<stop offset="1" stop-color="#00B388"/>
</linearGradient>
<linearGradient id="paint25_linear_126_11751" x1="42.4544" y1="7.42058" x2="2.00536" y2="31.6733" gradientUnits="userSpaceOnUse">
<stop stop-color="#007893"/>
<stop offset="1" stop-color="#00B388"/>
</linearGradient>
<linearGradient id="paint26_linear_126_11751" x1="42.4544" y1="7.42058" x2="2.00536" y2="31.6733" gradientUnits="userSpaceOnUse">
<stop stop-color="#007893"/>
<stop offset="1" stop-color="#00B388"/>
</linearGradient>
<linearGradient id="paint27_linear_126_11751" x1="42.4544" y1="7.42058" x2="2.00536" y2="31.6733" gradientUnits="userSpaceOnUse">
<stop stop-color="#007893"/>
<stop offset="1" stop-color="#00B388"/>
</linearGradient>
<linearGradient id="paint28_linear_126_11751" x1="42.4544" y1="7.42058" x2="2.00536" y2="31.6733" gradientUnits="userSpaceOnUse">
<stop stop-color="#007893"/>
<stop offset="1" stop-color="#00B388"/>
</linearGradient>
<linearGradient id="paint29_linear_126_11751" x1="42.4544" y1="7.42058" x2="2.00536" y2="31.6733" gradientUnits="userSpaceOnUse">
<stop stop-color="#007893"/>
<stop offset="1" stop-color="#00B388"/>
</linearGradient>
<linearGradient id="paint30_linear_126_11751" x1="42.4544" y1="7.42058" x2="2.00536" y2="31.6733" gradientUnits="userSpaceOnUse">
<stop stop-color="#007893"/>
<stop offset="1" stop-color="#00B388"/>
</linearGradient>
<linearGradient id="paint31_linear_126_11751" x1="42.4544" y1="7.42058" x2="2.00536" y2="31.6733" gradientUnits="userSpaceOnUse">
<stop stop-color="#007893"/>
<stop offset="1" stop-color="#00B388"/>
</linearGradient>
<linearGradient id="paint32_linear_126_11751" x1="42.4544" y1="7.42058" x2="2.00536" y2="31.6733" gradientUnits="userSpaceOnUse">
<stop stop-color="#007893"/>
<stop offset="1" stop-color="#00B388"/>
</linearGradient>
<linearGradient id="paint33_linear_126_11751" x1="42.4544" y1="7.42058" x2="2.00536" y2="31.6733" gradientUnits="userSpaceOnUse">
<stop stop-color="#007893"/>
<stop offset="1" stop-color="#00B388"/>
</linearGradient>
<linearGradient id="paint34_linear_126_11751" x1="42.4544" y1="7.42058" x2="2.00536" y2="31.6733" gradientUnits="userSpaceOnUse">
<stop stop-color="#007893"/>
<stop offset="1" stop-color="#00B388"/>
</linearGradient>
<linearGradient id="paint35_linear_126_11751" x1="42.4544" y1="7.42058" x2="2.00536" y2="31.6733" gradientUnits="userSpaceOnUse">
<stop stop-color="#007893"/>
<stop offset="1" stop-color="#00B388"/>
</linearGradient>
<linearGradient id="paint36_linear_126_11751" x1="42.4544" y1="7.42058" x2="2.00536" y2="31.6733" gradientUnits="userSpaceOnUse">
<stop stop-color="#007893"/>
<stop offset="1" stop-color="#00B388"/>
</linearGradient>
<linearGradient id="paint37_linear_126_11751" x1="42.4544" y1="7.42058" x2="2.00536" y2="31.6733" gradientUnits="userSpaceOnUse">
<stop stop-color="#007893"/>
<stop offset="1" stop-color="#00B388"/>
</linearGradient>
<linearGradient id="paint38_linear_126_11751" x1="42.4544" y1="7.42058" x2="2.00536" y2="31.6733" gradientUnits="userSpaceOnUse">
<stop stop-color="#007893"/>
<stop offset="1" stop-color="#00B388"/>
</linearGradient>
<linearGradient id="paint39_linear_126_11751" x1="42.4544" y1="7.42058" x2="2.00536" y2="31.6733" gradientUnits="userSpaceOnUse">
<stop stop-color="#007893"/>
<stop offset="1" stop-color="#00B388"/>
</linearGradient>
<linearGradient id="paint40_linear_126_11751" x1="42.4544" y1="7.42058" x2="2.00536" y2="31.6733" gradientUnits="userSpaceOnUse">
<stop stop-color="#007893"/>
<stop offset="1" stop-color="#00B388"/>
</linearGradient>
<linearGradient id="paint41_linear_126_11751" x1="42.4544" y1="7.42058" x2="2.00536" y2="31.6733" gradientUnits="userSpaceOnUse">
<stop stop-color="#007893"/>
<stop offset="1" stop-color="#00B388"/>
</linearGradient>
<linearGradient id="paint42_linear_126_11751" x1="42.4544" y1="7.42058" x2="2.00536" y2="31.6733" gradientUnits="userSpaceOnUse">
<stop stop-color="#007893"/>
<stop offset="1" stop-color="#00B388"/>
</linearGradient>
<linearGradient id="paint43_linear_126_11751" x1="42.4544" y1="7.42058" x2="2.00536" y2="31.6733" gradientUnits="userSpaceOnUse">
<stop stop-color="#007893"/>
<stop offset="1" stop-color="#00B388"/>
</linearGradient>
<linearGradient id="paint44_linear_126_11751" x1="42.4544" y1="7.42058" x2="2.00536" y2="31.6733" gradientUnits="userSpaceOnUse">
<stop stop-color="#007893"/>
<stop offset="1" stop-color="#00B388"/>
</linearGradient>
<linearGradient id="paint45_linear_126_11751" x1="42.4544" y1="7.42058" x2="2.00536" y2="31.6733" gradientUnits="userSpaceOnUse">
<stop stop-color="#007893"/>
<stop offset="1" stop-color="#00B388"/>
</linearGradient>
<linearGradient id="paint46_linear_126_11751" x1="42.4544" y1="7.42058" x2="2.00536" y2="31.6733" gradientUnits="userSpaceOnUse">
<stop stop-color="#007893"/>
<stop offset="1" stop-color="#00B388"/>
</linearGradient>
<linearGradient id="paint47_linear_126_11751" x1="42.4544" y1="7.42058" x2="2.00536" y2="31.6733" gradientUnits="userSpaceOnUse">
<stop stop-color="#007893"/>
<stop offset="1" stop-color="#00B388"/>
</linearGradient>
<linearGradient id="paint48_linear_126_11751" x1="42.4544" y1="7.42058" x2="2.00536" y2="31.6733" gradientUnits="userSpaceOnUse">
<stop stop-color="#007893"/>
<stop offset="1" stop-color="#00B388"/>
</linearGradient>
<linearGradient id="paint49_linear_126_11751" x1="42.4544" y1="7.42058" x2="2.00536" y2="31.6733" gradientUnits="userSpaceOnUse">
<stop stop-color="#007893"/>
<stop offset="1" stop-color="#00B388"/>
</linearGradient>
<linearGradient id="paint50_linear_126_11751" x1="42.4544" y1="7.42058" x2="2.00536" y2="31.6733" gradientUnits="userSpaceOnUse">
<stop stop-color="#007893"/>
<stop offset="1" stop-color="#00B388"/>
</linearGradient>
<linearGradient id="paint51_linear_126_11751" x1="42.4544" y1="7.42058" x2="2.00536" y2="31.6733" gradientUnits="userSpaceOnUse">
<stop stop-color="#007893"/>
<stop offset="1" stop-color="#00B388"/>
</linearGradient>
<linearGradient id="paint52_linear_126_11751" x1="42.4544" y1="7.42058" x2="2.00536" y2="31.6733" gradientUnits="userSpaceOnUse">
<stop stop-color="#007893"/>
<stop offset="1" stop-color="#00B388"/>
</linearGradient>
<linearGradient id="paint53_linear_126_11751" x1="42.4544" y1="7.42058" x2="2.00536" y2="31.6733" gradientUnits="userSpaceOnUse">
<stop stop-color="#007893"/>
<stop offset="1" stop-color="#00B388"/>
</linearGradient>
<linearGradient id="paint54_linear_126_11751" x1="42.4544" y1="7.42058" x2="2.00536" y2="31.6733" gradientUnits="userSpaceOnUse">
<stop stop-color="#007893"/>
<stop offset="1" stop-color="#00B388"/>
</linearGradient>
<linearGradient id="paint55_linear_126_11751" x1="42.4544" y1="7.42058" x2="2.00536" y2="31.6733" gradientUnits="userSpaceOnUse">
<stop stop-color="#007893"/>
<stop offset="1" stop-color="#00B388"/>
</linearGradient>
<linearGradient id="paint56_linear_126_11751" x1="42.4544" y1="7.42058" x2="2.00536" y2="31.6733" gradientUnits="userSpaceOnUse">
<stop stop-color="#007893"/>
<stop offset="1" stop-color="#00B388"/>
</linearGradient>
<linearGradient id="paint57_linear_126_11751" x1="42.4544" y1="7.42058" x2="2.00536" y2="31.6733" gradientUnits="userSpaceOnUse">
<stop stop-color="#007893"/>
<stop offset="1" stop-color="#00B388"/>
</linearGradient>
<linearGradient id="paint58_linear_126_11751" x1="42.4544" y1="7.42058" x2="2.00536" y2="31.6733" gradientUnits="userSpaceOnUse">
<stop stop-color="#007893"/>
<stop offset="1" stop-color="#00B388"/>
</linearGradient>
<linearGradient id="paint59_linear_126_11751" x1="42.4544" y1="7.42058" x2="2.00536" y2="31.6733" gradientUnits="userSpaceOnUse">
<stop stop-color="#007893"/>
<stop offset="1" stop-color="#00B388"/>
</linearGradient>
<linearGradient id="paint60_linear_126_11751" x1="42.4544" y1="7.42058" x2="2.00536" y2="31.6733" gradientUnits="userSpaceOnUse">
<stop stop-color="#007893"/>
<stop offset="1" stop-color="#00B388"/>
</linearGradient>
<linearGradient id="paint61_linear_126_11751" x1="42.4544" y1="7.42058" x2="2.00536" y2="31.6733" gradientUnits="userSpaceOnUse">
<stop stop-color="#007893"/>
<stop offset="1" stop-color="#00B388"/>
</linearGradient>
<linearGradient id="paint62_linear_126_11751" x1="42.4544" y1="7.42058" x2="2.00536" y2="31.6733" gradientUnits="userSpaceOnUse">
<stop stop-color="#007893"/>
<stop offset="1" stop-color="#00B388"/>
</linearGradient>
<linearGradient id="paint63_linear_126_11751" x1="42.4544" y1="7.42058" x2="2.00536" y2="31.6733" gradientUnits="userSpaceOnUse">
<stop stop-color="#007893"/>
<stop offset="1" stop-color="#00B388"/>
</linearGradient>
<linearGradient id="paint64_linear_126_11751" x1="42.4544" y1="7.42058" x2="2.00536" y2="31.6733" gradientUnits="userSpaceOnUse">
<stop stop-color="#007893"/>
<stop offset="1" stop-color="#00B388"/>
</linearGradient>
<linearGradient id="paint65_linear_126_11751" x1="42.4544" y1="7.42058" x2="2.00536" y2="31.6733" gradientUnits="userSpaceOnUse">
<stop stop-color="#007893"/>
<stop offset="1" stop-color="#00B388"/>
</linearGradient>
<linearGradient id="paint66_linear_126_11751" x1="42.4544" y1="7.42058" x2="2.00536" y2="31.6733" gradientUnits="userSpaceOnUse">
<stop stop-color="#007893"/>
<stop offset="1" stop-color="#00B388"/>
</linearGradient>
<linearGradient id="paint67_linear_126_11751" x1="42.4544" y1="7.42058" x2="2.00536" y2="31.6733" gradientUnits="userSpaceOnUse">
<stop stop-color="#007893"/>
<stop offset="1" stop-color="#00B388"/>
</linearGradient>
<linearGradient id="paint68_linear_126_11751" x1="42.4544" y1="7.42058" x2="2.00536" y2="31.6733" gradientUnits="userSpaceOnUse">
<stop stop-color="#007893"/>
<stop offset="1" stop-color="#00B388"/>
</linearGradient>
<linearGradient id="paint69_linear_126_11751" x1="42.4544" y1="7.42058" x2="2.00536" y2="31.6733" gradientUnits="userSpaceOnUse">
<stop stop-color="#007893"/>
<stop offset="1" stop-color="#00B388"/>
</linearGradient>
<linearGradient id="paint70_linear_126_11751" x1="42.4544" y1="7.42058" x2="2.00536" y2="31.6733" gradientUnits="userSpaceOnUse">
<stop stop-color="#007893"/>
<stop offset="1" stop-color="#00B388"/>
</linearGradient>
<linearGradient id="paint71_linear_126_11751" x1="42.4544" y1="7.42058" x2="2.00536" y2="31.6733" gradientUnits="userSpaceOnUse">
<stop stop-color="#007893"/>
<stop offset="1" stop-color="#00B388"/>
</linearGradient>
<linearGradient id="paint72_linear_126_11751" x1="42.4544" y1="7.42058" x2="2.00536" y2="31.6733" gradientUnits="userSpaceOnUse">
<stop stop-color="#007893"/>
<stop offset="1" stop-color="#00B388"/>
</linearGradient>
<linearGradient id="paint73_linear_126_11751" x1="42.4544" y1="7.42058" x2="2.00536" y2="31.6733" gradientUnits="userSpaceOnUse">
<stop stop-color="#007893"/>
<stop offset="1" stop-color="#00B388"/>
</linearGradient>
<linearGradient id="paint74_linear_126_11751" x1="42.4544" y1="7.42058" x2="2.00536" y2="31.6733" gradientUnits="userSpaceOnUse">
<stop stop-color="#007893"/>
<stop offset="1" stop-color="#00B388"/>
</linearGradient>
</defs>
</svg>
