<svg width="25" height="26" viewBox="0 0 25 26" fill="none" xmlns="http://www.w3.org/2000/svg">
<g clip-path="url(#clip0_7_124)">
<path d="M6.66667 4.0342L4.66667 0.0812073C3.11337 1.10821 1.64256 2.24893 0.266988 3.49349L0 3.73505L2.5 8.09403C3.48364 6.44342 4.88422 5.06539 6.5686 4.09094L6.66667 4.0342Z" fill="#C74B24"/>
<path d="M18.3333 4.0342L20.3333 0.0812073C21.8866 1.10821 23.3574 2.24893 24.733 3.49349L25 3.73505L22.5 8.09403C21.5164 6.44342 20.1158 5.06539 18.4314 4.09094L18.3333 4.0342Z" fill="#C74B24"/>
<circle cx="12.5" cy="13.5" r="2.5" fill="#C74B24"/>
<path d="M23.4448 9.55669C22.4536 7.20723 20.6939 5.24246 18.439 3.96758L15.4805 8.93542C16.6121 9.57522 17.4952 10.5612 17.9926 11.7403C18.4901 12.9194 18.5739 14.2255 18.2312 15.4558C17.8885 16.6861 17.1384 17.7717 16.0975 18.544C15.0565 19.3162 13.783 19.7319 12.4746 19.7265C11.1663 19.721 9.89641 19.2947 8.86226 18.5138C7.82811 17.7329 7.08757 16.6411 6.75567 15.408C6.42377 14.1749 6.5191 12.8696 7.02684 11.6947C7.53457 10.5198 8.42631 9.54114 9.56351 8.91078L6.6487 3.91849C4.38268 5.17455 2.6058 7.1246 1.59407 9.46571C0.58234 11.8068 0.392395 14.408 1.05374 16.8651C1.71509 19.3222 3.1907 21.4977 5.25137 23.0537C7.31204 24.6097 9.84241 25.4592 12.4494 25.47C15.0565 25.4809 17.5942 24.6525 19.6684 23.1137C21.7427 21.5749 23.2373 19.4118 23.9202 16.9603C24.6031 14.5088 24.4359 11.9061 23.4448 9.55669Z" fill="url(#paint0_linear_7_124)"/>
</g>
<defs>
<linearGradient id="paint0_linear_7_124" x1="25.22" y1="7.81911" x2="3.06029" y2="22.4379" gradientUnits="userSpaceOnUse">
<stop stop-color="#23A04D"/>
<stop offset="1" stop-color="#078933"/>
</linearGradient>
<clipPath id="clip0_7_124">
<rect width="25" height="26" fill="white"/>
</clipPath>
</defs>
</svg>